<svg xmlns="http://www.w3.org/2000/svg" xmlns:xlink="http://www.w3.org/1999/xlink" width="500" zoomAndPan="magnify" viewBox="0 0 375 374.999991" height="500" preserveAspectRatio="xMidYMid meet" version="1.0"><defs><clipPath id="af80a62173"><path d="M 214 37.5 L 230 37.5 L 230 109 L 214 109 Z M 214 37.5 " clip-rule="nonzero"/></clipPath><clipPath id="05046ccf47"><path d="M 143 37.5 L 159 37.5 L 159 108 L 143 108 Z M 143 37.5 " clip-rule="nonzero"/></clipPath><clipPath id="b3360f5b73"><path d="M 206 296.625 L 214 296.625 L 214 302 L 206 302 Z M 206 296.625 " clip-rule="nonzero"/></clipPath><clipPath id="53959d070d"><path d="M 37.5 304 L 337.5 304 L 337.5 331 L 37.5 331 Z M 37.5 304 " clip-rule="nonzero"/></clipPath><clipPath id="1b314461e0"><path d="M 41 319 L 331 319 L 331 337.875 L 41 337.875 Z M 41 319 " clip-rule="nonzero"/></clipPath></defs><rect x="-37.5" width="450" fill="#ffffff" y="-37.499999" height="449.999989" fill-opacity="1"/><path fill="#f47c7c" d="M 150.167969 59.863281 C 148.097656 59.378906 146.027344 60.664062 145.539062 62.738281 L 138.898438 91.0625 L 120.105469 165.46875 C 110.449219 203.703125 88.628906 238.5 58.488281 263.851562 C 56.882812 265.203125 56.648438 267.585938 57.964844 269.222656 C 59.320312 270.90625 61.792969 271.144531 63.445312 269.753906 C 67.386719 266.445312 71.183594 262.984375 74.839844 259.390625 L 74.839844 292.898438 C 74.839844 295.011719 76.464844 296.851562 78.574219 296.914062 C 80.753906 296.980469 82.542969 295.230469 82.542969 293.0625 L 82.542969 251.363281 C 86.554688 246.941406 90.367188 242.335938 93.964844 237.554688 L 93.964844 292.898438 C 93.964844 295.011719 95.589844 296.851562 97.699219 296.914062 C 99.878906 296.980469 101.667969 295.230469 101.667969 293.0625 L 101.667969 226.5625 C 101.945312 226.132812 102.230469 225.707031 102.507812 225.277344 C 106.386719 219.21875 109.914062 212.96875 113.089844 206.558594 L 113.089844 292.898438 C 113.089844 295.011719 114.714844 296.851562 116.824219 296.914062 C 119.003906 296.980469 120.792969 295.230469 120.792969 293.058594 L 120.792969 188.898438 C 123.453125 181.871094 125.722656 174.683594 127.574219 167.359375 L 146.371094 92.917969 C 146.378906 92.898438 146.382812 92.878906 146.386719 92.855469 L 153.039062 64.5 C 153.523438 62.425781 152.242188 60.351562 150.167969 59.863281 Z M 150.167969 59.863281 " fill-opacity="1" fill-rule="nonzero"/><path fill="#f47c7c" d="M 316.453125 266.25 C 284.804688 240.71875 261.890625 204.925781 251.925781 165.46875 L 233.136719 91.066406 L 225.464844 59.304688 C 224.964844 57.238281 222.886719 55.964844 220.816406 56.464844 C 218.75 56.964844 217.480469 59.046875 217.980469 61.121094 L 225.660156 92.921875 L 244.457031 167.359375 C 246.308594 174.683594 248.578125 181.871094 251.238281 188.898438 L 251.238281 293.0625 C 251.238281 295.191406 252.964844 296.917969 255.089844 296.917969 C 257.214844 296.917969 258.941406 295.191406 258.941406 293.0625 L 258.941406 206.558594 C 262.121094 212.96875 265.644531 219.21875 269.523438 225.277344 C 269.796875 225.707031 270.082031 226.132812 270.363281 226.5625 L 270.363281 293.0625 C 270.363281 295.191406 272.089844 296.917969 274.214844 296.917969 C 276.339844 296.917969 278.066406 295.191406 278.066406 293.0625 L 278.066406 237.554688 C 281.664062 242.335938 285.476562 246.941406 289.488281 251.363281 L 289.488281 293.0625 C 289.488281 295.191406 291.210938 296.917969 293.339844 296.917969 C 295.464844 296.917969 297.191406 295.191406 297.191406 293.0625 L 297.191406 259.390625 C 301.777344 263.902344 306.589844 268.195312 311.621094 272.257812 C 312.335938 272.832031 313.1875 273.109375 314.035156 273.109375 C 315.160156 273.109375 316.277344 272.621094 317.039062 271.671875 C 318.371094 270.015625 318.109375 267.589844 316.453125 266.25 Z M 316.453125 266.25 " fill-opacity="1" fill-rule="nonzero"/><path fill="#d83131" d="M 213.160156 107.632812 L 148.429688 107.632812 L 148.429688 131.597656 L 160.246094 130.574219 L 161.230469 130.574219 L 171.367188 123.304688 L 202.039062 123.304688 L 212.851562 131.0625 L 213.160156 131.0625 L 224.347656 131.597656 L 224.347656 107.632812 Z M 213.160156 107.632812 " fill-opacity="1" fill-rule="nonzero"/><path fill="#d83131" d="M 214.742188 49.5 L 148.429688 49.5 L 148.429688 75.742188 L 158.664062 74.289062 L 171.367188 65.179688 L 202.039062 65.179688 L 214.742188 74.289062 L 224.347656 75.742188 L 224.347656 49.5 Z M 214.742188 49.5 " fill-opacity="1" fill-rule="nonzero"/><path fill="#d83131" d="M 210.972656 164.675781 L 153.847656 164.675781 L 153.847656 188.199219 L 162.433594 186.757812 L 171.367188 180.347656 L 202.039062 180.347656 L 210.972656 186.757812 L 222.242188 187.507812 L 222.242188 164.675781 Z M 210.972656 164.675781 " fill-opacity="1" fill-rule="nonzero"/><path fill="#d83131" d="M 208.976562 228.847656 L 150.132812 228.847656 L 150.132812 251.117188 L 164.429688 249.503906 L 171.367188 244.519531 L 202.039062 244.519531 L 208.976562 249.503906 L 222.242188 251.792969 L 222.242188 228.847656 Z M 208.976562 228.847656 " fill-opacity="1" fill-rule="nonzero"/><g clip-path="url(#af80a62173)"><path fill="#e94444" d="M 229.742188 41.328125 L 229.742188 108.425781 L 214.742188 108.425781 L 214.742188 41.328125 C 214.742188 39.199219 216.46875 37.476562 218.589844 37.476562 L 225.894531 37.476562 C 228.019531 37.476562 229.742188 39.199219 229.742188 41.328125 Z M 229.742188 41.328125 " fill-opacity="1" fill-rule="nonzero"/></g><path fill="#d83131" d="M 214.742188 83.230469 L 229.742188 83.230469 L 229.742188 108.425781 L 214.742188 108.425781 Z M 214.742188 83.230469 " fill-opacity="1" fill-rule="nonzero"/><path fill="#e94444" d="M 231.320312 93.183594 L 231.320312 174.007812 L 213.160156 174.007812 L 213.160156 93.183594 C 213.160156 92.515625 213.707031 91.972656 214.371094 91.972656 L 230.109375 91.972656 C 230.78125 91.972656 231.320312 92.515625 231.320312 93.183594 Z M 231.320312 93.183594 " fill-opacity="1" fill-rule="nonzero"/><path fill="#d83131" d="M 213.160156 144.183594 L 231.320312 144.183594 L 231.320312 174.007812 L 213.160156 174.007812 Z M 213.160156 144.183594 " fill-opacity="1" fill-rule="nonzero"/><path fill="#e94444" d="M 213.160156 152.925781 L 231.9375 152.925781 C 232.804688 152.925781 233.507812 153.628906 233.507812 154.5 L 233.507812 238.988281 L 210.972656 238.988281 L 210.972656 154.5 C 210.972656 153.628906 211.675781 152.925781 212.550781 152.925781 Z M 213.160156 152.925781 " fill-opacity="1" fill-rule="nonzero"/><path fill="#d83131" d="M 232.757812 211.222656 L 211.730469 211.222656 C 211.476562 211.222656 211.222656 211.234375 210.972656 211.25 L 210.972656 238.988281 L 233.507812 238.988281 L 233.507812 211.25 C 233.261719 211.234375 233.011719 211.222656 232.757812 211.222656 Z M 232.757812 211.222656 " fill-opacity="1" fill-rule="nonzero"/><path fill="#e94444" d="M 235.507812 222.714844 L 235.507812 290.257812 C 235.507812 291.804688 234.253906 293.0625 232.703125 293.0625 L 211.777344 293.0625 C 210.230469 293.0625 208.976562 291.804688 208.976562 290.257812 L 208.976562 222.71875 C 208.976562 221.199219 210.207031 219.964844 211.726562 219.964844 L 232.757812 219.964844 C 234.277344 219.964844 235.507812 221.195312 235.507812 222.714844 Z M 235.507812 222.714844 " fill-opacity="1" fill-rule="nonzero"/><g clip-path="url(#05046ccf47)"><path fill="#e94444" d="M 158.664062 41.328125 L 158.664062 107.398438 L 143.667969 107.398438 L 143.667969 41.328125 C 143.667969 39.199219 145.386719 37.476562 147.511719 37.476562 L 154.816406 37.476562 C 156.9375 37.476562 158.664062 39.199219 158.664062 41.328125 Z M 158.664062 41.328125 " fill-opacity="1" fill-rule="nonzero"/></g><path fill="#d83131" d="M 143.667969 83.230469 L 158.664062 83.230469 L 158.664062 107.398438 L 143.667969 107.398438 Z M 143.667969 83.230469 " fill-opacity="1" fill-rule="nonzero"/><path fill="#e94444" d="M 160.246094 93.183594 L 160.246094 171.949219 L 142.085938 171.949219 L 142.085938 93.183594 C 142.085938 92.515625 142.625 91.972656 143.296875 91.972656 L 159.035156 91.972656 C 159.699219 91.972656 160.246094 92.515625 160.246094 93.183594 Z M 160.246094 93.183594 " fill-opacity="1" fill-rule="nonzero"/><path fill="#d83131" d="M 142.085938 144.183594 L 160.246094 144.183594 L 160.246094 171.949219 L 142.085938 171.949219 Z M 142.085938 144.183594 " fill-opacity="1" fill-rule="nonzero"/><path fill="#e94444" d="M 162.433594 154.5 L 162.433594 237.960938 L 139.898438 237.960938 L 139.898438 154.5 C 139.898438 153.628906 140.601562 152.925781 141.46875 152.925781 L 160.855469 152.925781 C 161.730469 152.925781 162.433594 153.628906 162.433594 154.5 Z M 162.433594 154.5 " fill-opacity="1" fill-rule="nonzero"/><path fill="#d83131" d="M 162.433594 211.25 C 162.183594 211.234375 161.929688 211.222656 161.679688 211.222656 L 140.648438 211.222656 C 140.394531 211.222656 140.144531 211.234375 139.898438 211.25 L 139.898438 237.960938 L 162.433594 237.960938 Z M 162.433594 211.25 " fill-opacity="1" fill-rule="nonzero"/><path fill="#e94444" d="M 164.429688 222.71875 L 164.429688 290.359375 C 164.429688 291.851562 163.222656 293.0625 161.730469 293.0625 L 140.597656 293.0625 C 139.109375 293.0625 137.898438 291.851562 137.898438 290.359375 L 137.898438 222.714844 C 137.898438 221.195312 139.128906 219.964844 140.648438 219.964844 L 161.679688 219.964844 C 163.199219 219.964844 164.429688 221.199219 164.429688 222.71875 Z M 164.429688 222.71875 " fill-opacity="1" fill-rule="nonzero"/><g clip-path="url(#b3360f5b73)"><path fill="#3bb4d7" d="M 210.066406 296.742188 C 210.753906 296.578125 211.511719 296.578125 212.1875 296.796875 C 212.945312 297.332031 213.476562 298.164062 212.886719 299.050781 C 211.988281 300.554688 209.65625 301.164062 208.0625 301.542969 C 207.230469 301.8125 206.523438 301.074219 206.613281 300.253906 C 206.695312 298.472656 208.527344 297.203125 210.066406 296.742188 Z M 210.066406 296.742188 " fill-opacity="1" fill-rule="nonzero"/></g><g clip-path="url(#53959d070d)"><path fill="#3bb4d7" d="M 337.363281 304.679688 C 337.238281 305.621094 337.257812 306.464844 336.613281 307.234375 C 335.160156 309.101562 333.292969 310.667969 331.59375 312.3125 C 327.960938 315.792969 324.113281 319.011719 319.976562 321.871094 C 315.085938 325.160156 309.148438 326.949219 303.5625 328.726562 C 297.800781 330.476562 291.628906 329.9375 286.191406 327.378906 C 284.535156 326.597656 283.046875 325.621094 281.320312 324.988281 C 280.273438 324.59375 279.28125 324.152344 278.4375 323.386719 C 276.527344 321.671875 274.84375 319.722656 273.359375 317.617188 C 273.140625 317.347656 272.746094 316.757812 272.363281 317.109375 C 270.71875 318.460938 269.195312 319.941406 267.410156 321.113281 C 264.050781 323.503906 260.390625 324.816406 256.550781 326.167969 C 252.3125 327.71875 247.953125 328.550781 243.441406 328.585938 C 240.914062 328.75 238.425781 328.410156 235.953125 327.933594 C 233.890625 327.511719 232.015625 326.65625 229.988281 326.0625 C 227.417969 325.328125 225.308594 323.167969 223.183594 321.546875 C 219.828125 318.917969 217.839844 315.507812 215.402344 312.082031 C 212.667969 314.011719 210.105469 316.183594 207.347656 318.082031 C 204.800781 319.808594 201.972656 320.929688 199.230469 322.382812 C 195.867188 324.167969 192.410156 326.144531 188.679688 327.015625 C 185.15625 327.855469 181.339844 328.339844 177.746094 327.71875 C 173.457031 327.011719 168.914062 325.898438 165.132812 323.664062 C 161.789062 321.714844 159.347656 319.046875 156.210938 316.617188 C 154.507812 315.316406 153.015625 313.804688 151.566406 312.230469 C 149.0625 314.535156 146.484375 316.425781 143.550781 318.144531 C 139.007812 320.886719 134.183594 323.699219 129.113281 325.300781 C 125.027344 326.507812 120.828125 327.457031 116.613281 328.070312 C 114.988281 328.316406 113.550781 328.816406 111.921875 328.738281 C 105.421875 328.207031 99.800781 325.570312 94.300781 322.210938 C 90.710938 319.902344 87.789062 316.210938 85.347656 312.746094 C 83.945312 313.671875 82.609375 314.660156 81.308594 315.726562 C 79.097656 317.515625 76.710938 319.03125 74.246094 320.433594 C 70.949219 322.289062 67.386719 323.558594 63.863281 324.875 C 60.558594 326.113281 57.199219 327.199219 53.800781 328.148438 C 52 328.675781 50.179688 328.667969 48.417969 329.351562 C 45.75 330.359375 42.425781 331.109375 39.65625 330.144531 C 38.898438 329.773438 37.378906 329.070312 37.671875 328.007812 C 37.734375 327.011719 39.21875 326.996094 39.941406 326.863281 C 42.609375 326.691406 45.148438 325.992188 47.757812 325.464844 C 48.726562 325.269531 49.632812 324.910156 50.535156 324.507812 C 52.15625 323.785156 53.835938 323.347656 55.503906 322.761719 C 58.148438 321.828125 60.699219 320.726562 63.269531 319.617188 C 65.71875 318.5625 68.230469 317.589844 70.519531 316.253906 C 72.757812 314.972656 74.816406 313.453125 76.84375 311.859375 C 78.335938 310.675781 79.8125 309.65625 81.132812 308.265625 C 81.769531 307.621094 82.414062 306.832031 83.1875 306.359375 C 84.535156 305.515625 86.542969 306.097656 87.238281 307.539062 C 87.832031 308.644531 88.289062 309.761719 89.140625 310.710938 C 90.660156 312.425781 92.339844 314.03125 94.050781 315.558594 C 96.472656 317.75 99.710938 319.1875 102.691406 320.449219 C 105.171875 321.503906 107.738281 322.296875 110.433594 322.554688 C 113.085938 322.773438 115.261719 323.632812 117.890625 323.054688 C 120.910156 322.382812 123.867188 321.375 126.808594 320.414062 C 132.203125 318.53125 137.367188 315.121094 142.105469 311.945312 C 144.382812 310.429688 146.4375 308.652344 148.390625 306.742188 C 149.367188 305.839844 150.488281 304.710938 151.929688 304.90625 C 153.601562 305.234375 154.660156 306.886719 155.738281 308.085938 C 158.09375 310.925781 160.96875 312.589844 163.738281 314.941406 C 165.792969 316.667969 167.707031 318.363281 170.242188 319.363281 C 173.632812 320.695312 177.28125 321.554688 180.925781 321.628906 C 183.621094 321.734375 186.445312 320.9375 188.984375 320.074219 C 192.183594 318.933594 195.050781 316.949219 198.199219 315.484375 C 200.5625 314.382812 202.832031 313.117188 204.890625 311.507812 C 206.617188 310.136719 208.320312 308.726562 210.082031 307.398438 C 211.765625 306.136719 213.410156 304.808594 215.582031 304.589844 C 216.929688 304.480469 217.980469 305.253906 218.800781 306.246094 C 220.515625 308.371094 221.816406 310.84375 223.5625 312.957031 C 224.855469 314.515625 226.25 316.078125 227.824219 317.351562 C 229.457031 318.714844 231.148438 319.789062 232.507812 321.355469 C 233.226562 322.113281 233.785156 323.046875 234.875 323.25 C 236.925781 323.648438 239.085938 323.867188 241.171875 323.804688 C 244.953125 323.757812 248.898438 323.316406 252.460938 321.984375 C 257.792969 320.144531 262.84375 318.121094 267.058594 314.21875 C 268.464844 312.945312 269.507812 311.359375 270.84375 310.035156 C 271.867188 308.964844 273.636719 309.105469 274.824219 309.792969 C 276.175781 310.546875 276.722656 312.300781 277.488281 313.582031 C 278.742188 315.847656 280.648438 317.242188 282.367188 319.121094 C 283.1875 319.964844 283.898438 320.980469 284.816406 321.710938 C 288.621094 324.273438 293.023438 324.945312 297.523438 324.644531 C 300.578125 324.359375 303.636719 323.117188 306.523438 322.089844 C 310.457031 320.691406 314.195312 318.992188 317.59375 316.523438 C 319.738281 314.945312 321.820312 313.316406 324.148438 312.007812 C 327.757812 309.984375 330.984375 307.449219 334.40625 305.148438 C 335.441406 304.4375 336.164062 304.449219 337.363281 304.679688 Z M 337.363281 304.679688 " fill-opacity="1" fill-rule="nonzero"/></g><path fill="#3bb4d7" d="M 228.816406 305.425781 C 230.417969 306.820312 231.84375 308.425781 233.425781 309.851562 C 235.394531 311.808594 237.945312 313.164062 240.636719 313.769531 C 242.449219 314.148438 244.269531 314.121094 246.082031 313.761719 C 248.441406 313.304688 251.125 313.207031 253.308594 312.25 C 254.515625 311.746094 255.585938 310.941406 256.796875 310.453125 C 257.265625 310.25 257.683594 310.371094 258.15625 310.464844 C 258.453125 311.761719 257.625 312.589844 256.789062 313.421875 C 254.707031 315.3125 251.796875 316.484375 249.199219 317.460938 C 247.332031 318.121094 245.613281 318.871094 243.597656 318.765625 C 238.453125 318.792969 233.25 316.332031 230.15625 312.152344 C 228.882812 310.5 227.292969 308.785156 226.609375 306.789062 C 226.4375 306.203125 226.253906 305.519531 226.824219 305.085938 C 227.394531 304.398438 228.28125 305.003906 228.816406 305.425781 Z M 228.816406 305.425781 " fill-opacity="1" fill-rule="nonzero"/><path fill="#3bb4d7" d="M 281.9375 308.144531 C 282.292969 308.539062 282.597656 309 282.90625 309.433594 C 281.820312 309.410156 280.769531 309.210938 279.707031 309 C 279.808594 308.65625 279.914062 308.308594 280.019531 307.964844 C 280.628906 307.96875 281.371094 307.882812 281.9375 308.144531 Z M 281.9375 308.144531 " fill-opacity="1" fill-rule="nonzero"/><path fill="#3bb4d7" d="M 198.875 305.0625 C 199.582031 305.761719 199.105469 306.871094 198.601562 307.546875 C 196.839844 309.894531 194.429688 311.679688 191.746094 312.828125 C 187.871094 314.660156 183.804688 316.839844 179.382812 316.460938 C 177 316.28125 174.304688 316.414062 172.050781 315.59375 C 169.203125 314.671875 166.859375 312.128906 165.347656 309.605469 C 166.226562 309.578125 167.058594 309.445312 167.882812 309.832031 C 169.707031 310.644531 171.039062 311.839844 173.125 312.066406 C 175.921875 312.367188 178.808594 312.269531 181.59375 311.855469 C 184.8125 311.335938 187.0625 309.605469 189.933594 308.183594 C 191.730469 307.292969 193.128906 305.894531 194.804688 304.839844 C 196 304.058594 197.847656 303.9375 198.875 305.0625 Z M 198.875 305.0625 " fill-opacity="1" fill-rule="nonzero"/><path fill="#3bb4d7" d="M 311.972656 310.769531 C 312.90625 310.765625 314.503906 311.363281 314.527344 312.488281 C 314.21875 313.6875 313.054688 314.328125 312 314.757812 C 310.128906 315.488281 308.210938 316.066406 306.382812 316.921875 C 304.375 317.789062 302.640625 318.945312 300.367188 318.808594 C 296.433594 318.558594 292.648438 318.820312 288.964844 317.210938 C 287.660156 316.628906 287.023438 315.574219 286.519531 314.285156 C 288.949219 313.953125 291.285156 314.589844 293.722656 314.367188 C 295.296875 314.222656 296.859375 313.984375 298.445312 313.9375 C 299.984375 313.886719 301.410156 313.609375 302.84375 313.03125 C 305.734375 311.84375 308.832031 310.898438 311.972656 310.769531 Z M 311.972656 310.769531 " fill-opacity="1" fill-rule="nonzero"/><path fill="#3bb4d7" d="M 97.679688 308.171875 C 98.96875 308.910156 99.957031 310.070312 101.339844 310.714844 C 103.234375 311.660156 105.519531 311.785156 107.339844 312.820312 C 108.363281 313.730469 109.039062 315.1875 109.46875 316.472656 C 109.070312 317.613281 107.242188 317.539062 106.265625 317.628906 C 103.765625 317.78125 101.976562 316.476562 99.824219 315.421875 C 98.09375 314.5625 96.90625 313.058594 96.082031 311.332031 C 95.695312 310.523438 95.664062 309.585938 95.925781 308.738281 C 96.320312 308.058594 96.972656 307.84375 97.679688 308.171875 Z M 97.679688 308.171875 " fill-opacity="1" fill-rule="nonzero"/><g clip-path="url(#1b314461e0)"><path fill="#3bb4d7" d="M 327.464844 322.730469 C 328.625 322.792969 329.679688 323.164062 330.726562 323.632812 C 330.105469 323.980469 329.570312 324.378906 328.839844 324.453125 C 326.035156 324.871094 323.464844 324.597656 320.746094 325.71875 C 318.191406 326.726562 316.785156 328.699219 314.539062 330.308594 C 312.492188 331.910156 310.296875 333.03125 307.839844 333.835938 C 304.671875 335.082031 301.363281 335.875 297.960938 336.050781 C 295.453125 336.074219 292.984375 335.847656 290.511719 335.441406 C 286.769531 335.015625 282.933594 335.191406 279.207031 334.636719 C 275.828125 333.914062 272.566406 332.429688 269.449219 330.960938 C 267.414062 332.53125 266.117188 334.300781 263.75 335.328125 C 261.273438 336.480469 258.675781 336.359375 256.039062 335.941406 C 254.742188 335.722656 253.402344 335.105469 252.089844 335.140625 C 250.664062 335.371094 249.320312 336.003906 247.894531 336.277344 C 243.703125 337.09375 239.355469 336.664062 235.101562 336.460938 C 232.675781 336.355469 230.542969 335.585938 228.269531 334.804688 C 224.019531 333.441406 220.199219 330.078125 216.578125 327.507812 C 216.144531 327.234375 215.703125 326.960938 215.183594 326.902344 C 214.304688 327.160156 213.511719 327.832031 212.769531 328.355469 C 210.332031 330.195312 207.679688 331.652344 204.902344 332.902344 C 202.183594 334.117188 199.75 335.5 196.808594 336.058594 C 191.851562 336.953125 186.789062 337.050781 181.796875 336.355469 C 180.171875 336.101562 178.808594 335.339844 177.378906 334.589844 C 175.890625 333.78125 174.027344 333.988281 172.359375 333.84375 C 168.902344 333.667969 165.449219 332.34375 162.570312 330.429688 C 159.570312 328.566406 156.613281 326.695312 153.785156 324.570312 C 151.648438 325.878906 149.6875 327.425781 147.484375 328.625 C 144.621094 330.195312 141.964844 331.941406 138.929688 333.171875 C 136.613281 334.117188 134.386719 335.269531 132.0625 336.175781 C 128.484375 337.574219 124.425781 337.554688 120.605469 337.851562 C 118.21875 337.890625 115.304688 338.027344 113.246094 336.636719 C 111.824219 335.804688 110.886719 334.320312 109.125 334.390625 C 105.003906 334.191406 100.835938 334.160156 96.734375 333.695312 C 93.527344 333.160156 90.21875 332.394531 87.296875 330.929688 C 84.253906 329.207031 81.371094 327.132812 78.667969 324.921875 C 75.320312 326.550781 72.15625 328.671875 68.910156 330.480469 C 66.890625 331.546875 64.820312 332.574219 62.75 333.550781 C 59.640625 335.011719 56.457031 335.71875 53.128906 336.476562 C 50.75 336.992188 48.507812 337.484375 46.058594 337.277344 C 44.242188 337.109375 42.464844 336.503906 41.414062 334.914062 C 43.34375 334.90625 45.257812 335.195312 47.105469 334.910156 C 49.878906 334.523438 52.65625 333.460938 55.382812 332.691406 C 57.339844 332.140625 59.125 331.390625 60.894531 330.390625 C 66.109375 327.507812 71.265625 324.472656 76.179688 321.09375 C 77.300781 320.296875 78.726562 320.117188 79.925781 320.859375 C 81.363281 321.785156 82.53125 323.089844 83.964844 324.050781 C 85.730469 325.238281 87.523438 326.453125 89.449219 327.355469 C 92.648438 328.738281 96.175781 329.492188 99.625 329.894531 C 103.5625 330.238281 107.523438 330.28125 111.460938 330.574219 C 112.847656 330.617188 113.707031 331.839844 114.78125 332.570312 C 116.148438 333.683594 118.277344 333.519531 119.941406 333.507812 C 123.191406 333.285156 126.71875 333.210938 129.863281 332.332031 C 132.167969 331.699219 134.046875 330.523438 136.335938 329.601562 C 138.226562 328.835938 140.058594 327.976562 141.8125 326.933594 C 144.703125 325.207031 147.5625 323.894531 150.179688 321.742188 C 151.152344 321.015625 152.25 319.984375 153.457031 319.726562 C 154.761719 319.511719 155.558594 320.460938 156.492188 321.195312 C 158.917969 323.34375 161.574219 324.703125 164.296875 326.542969 C 166.972656 328.367188 170.050781 329.660156 173.296875 329.84375 C 174.796875 329.957031 176.382812 329.519531 177.847656 329.800781 C 179.625 330.371094 180.949219 331.746094 182.890625 332.097656 C 185.265625 332.488281 187.683594 332.386719 190.0625 332.128906 C 192.039062 331.90625 194.0625 331.847656 196.019531 331.480469 C 198.300781 331.042969 200.308594 329.671875 202.46875 328.746094 C 204.519531 327.867188 206.546875 327.078125 208.378906 325.761719 C 210.226562 324.535156 212.082031 322.675781 214.203125 322.007812 C 215.707031 321.511719 217.21875 322.738281 218.421875 323.503906 C 221.199219 325.519531 223.917969 327.570312 226.929688 329.226562 C 229.042969 330.410156 231.53125 331.003906 233.863281 331.609375 C 237.78125 332.65625 242.09375 332.15625 246.105469 331.789062 C 248.132812 331.609375 249.78125 330.351562 251.746094 330.097656 C 253.066406 330.089844 254.417969 330.722656 255.691406 331.035156 C 258.253906 331.746094 261.234375 331.753906 263.441406 330.074219 C 264.953125 329.019531 265.972656 327.1875 267.582031 326.347656 C 269.132812 325.765625 270.695312 326.4375 272.070312 327.160156 C 275.441406 328.855469 279.160156 329.910156 282.882812 330.457031 C 286.152344 330.890625 289.636719 330.6875 292.945312 331.289062 C 295.632812 331.773438 298.359375 331.859375 301.058594 331.390625 C 303.769531 331.019531 306.09375 329.996094 308.703125 329.207031 C 311.203125 328.433594 312.816406 326.816406 314.972656 325.445312 C 316.761719 324.257812 318.707031 323.339844 320.804688 322.867188 C 322.90625 322.339844 325.304688 322.609375 327.464844 322.730469 Z M 327.464844 322.730469 " fill-opacity="1" fill-rule="nonzero"/></g><path fill="#3bb4d7" d="M 123.796875 314.386719 C 123.503906 314.890625 123.246094 315.503906 122.8125 315.894531 C 121.351562 316.992188 119.734375 317.726562 117.875 317.613281 C 118.117188 316.863281 118.113281 316.171875 118.851562 315.730469 C 120.3125 314.8125 122.03125 313.917969 123.796875 314.386719 Z M 123.796875 314.386719 " fill-opacity="1" fill-rule="nonzero"/></svg>