<svg xmlns="http://www.w3.org/2000/svg" xmlns:xlink="http://www.w3.org/1999/xlink" width="1366" zoomAndPan="magnify" viewBox="0 0 1024.5 576" height="768" preserveAspectRatio="xMidYMid meet" version="1.0"><defs><g/><clipPath id="e9f2bc48c8"><path d="M 59 142 L 169 142 L 169 412.710938 L 59 412.710938 Z M 59 142 " clip-rule="nonzero"/></clipPath><clipPath id="6f48d988da"><path d="M 242 138 L 357 138 L 357 412.710938 L 242 412.710938 Z M 242 138 " clip-rule="nonzero"/></clipPath><clipPath id="a5e21548e8"><path d="M 238 117.355469 L 256 117.355469 L 256 199 L 238 199 Z M 238 117.355469 " clip-rule="nonzero"/></clipPath><clipPath id="57df42a628"><path d="M 157 117.355469 L 175 117.355469 L 175 197 L 157 197 Z M 157 117.355469 " clip-rule="nonzero"/></clipPath><clipPath id="e1916429b2"><path d="M 227 417.660156 L 234 417.660156 L 234 423 L 227 423 Z M 227 417.660156 " clip-rule="nonzero"/></clipPath><clipPath id="4782b6d8a2"><path d="M 57.570312 425 L 358.175781 425 L 358.175781 452 L 57.570312 452 Z M 57.570312 425 " clip-rule="nonzero"/></clipPath><clipPath id="7bab6cde94"><path d="M 61 440 L 352 440 L 352 458.890625 L 61 458.890625 Z M 61 440 " clip-rule="nonzero"/></clipPath><clipPath id="9c7ea2c9bc"><rect x="0" width="562" y="0" height="127"/></clipPath><clipPath id="2939bb0489"><rect x="0" width="566" y="0" height="109"/></clipPath></defs><g clip-path="url(#e9f2bc48c8)"><path fill="#f47c7c" d="M 165.296875 142.808594 C 162.9375 142.257812 160.578125 143.71875 160.023438 146.078125 L 152.449219 178.316406 L 131.03125 263.007812 C 120.023438 306.527344 95.15625 346.128906 60.800781 374.984375 C 58.96875 376.519531 58.703125 379.234375 60.203125 381.09375 C 61.746094 383.011719 64.566406 383.285156 66.449219 381.703125 C 70.941406 377.933594 75.269531 374 79.4375 369.90625 L 79.4375 408.046875 C 79.4375 410.449219 81.289062 412.542969 83.691406 412.617188 C 86.175781 412.691406 88.214844 410.699219 88.214844 408.230469 L 88.214844 360.773438 C 92.789062 355.738281 97.132812 350.496094 101.234375 345.054688 L 101.234375 408.046875 C 101.234375 410.449219 103.085938 412.542969 105.488281 412.617188 C 107.976562 412.691406 110.015625 410.699219 110.015625 408.230469 L 110.015625 332.542969 C 110.332031 332.054688 110.660156 331.570312 110.972656 331.078125 C 115.394531 324.183594 119.414062 317.070312 123.035156 309.773438 L 123.035156 408.042969 C 123.035156 410.449219 124.886719 412.542969 127.289062 412.617188 C 129.773438 412.691406 131.8125 410.699219 131.8125 408.230469 L 131.8125 289.675781 C 134.847656 281.675781 137.433594 273.496094 139.542969 265.15625 L 160.96875 180.433594 C 160.976562 180.410156 160.980469 180.386719 160.988281 180.359375 L 168.566406 148.085938 C 169.121094 145.726562 167.660156 143.363281 165.296875 142.808594 Z M 165.296875 142.808594 " fill-opacity="1" fill-rule="nonzero"/></g><g clip-path="url(#6f48d988da)"><path fill="#f47c7c" d="M 354.832031 377.714844 C 318.761719 348.652344 292.640625 307.914062 281.28125 263.003906 L 259.867188 178.324219 L 251.125 142.175781 C 250.554688 139.820312 248.183594 138.375 245.824219 138.941406 C 243.46875 139.511719 242.019531 141.882812 242.589844 144.238281 L 251.34375 180.433594 L 272.769531 265.160156 C 274.878906 273.496094 277.464844 281.675781 280.5 289.675781 L 280.5 408.230469 C 280.5 410.65625 282.464844 412.617188 284.890625 412.617188 C 287.3125 412.617188 289.277344 410.65625 289.277344 408.230469 L 289.277344 309.773438 C 292.902344 317.070312 296.917969 324.183594 301.339844 331.078125 C 301.65625 331.570312 301.980469 332.054688 302.300781 332.542969 L 302.300781 408.230469 C 302.300781 410.652344 304.265625 412.617188 306.6875 412.617188 C 309.113281 412.617188 311.078125 410.652344 311.078125 408.230469 L 311.078125 345.054688 C 315.179688 350.496094 319.523438 355.738281 324.097656 360.773438 L 324.097656 408.230469 C 324.097656 410.652344 326.0625 412.617188 328.488281 412.617188 C 330.910156 412.617188 332.875 410.652344 332.875 408.230469 L 332.875 369.90625 C 338.105469 375.039062 343.589844 379.929688 349.328125 384.550781 C 350.136719 385.203125 351.109375 385.523438 352.078125 385.523438 C 353.359375 385.523438 354.628906 384.964844 355.5 383.886719 C 357.019531 382 356.722656 379.238281 354.832031 377.714844 Z M 354.832031 377.714844 " fill-opacity="1" fill-rule="nonzero"/></g><path fill="#d83131" d="M 237.097656 197.179688 L 163.316406 197.179688 L 163.316406 224.457031 L 176.785156 223.292969 L 177.90625 223.292969 L 189.460938 215.019531 L 224.421875 215.019531 L 236.746094 223.847656 L 237.097656 223.847656 L 249.847656 224.457031 L 249.847656 197.179688 Z M 237.097656 197.179688 " fill-opacity="1" fill-rule="nonzero"/><path fill="#d83131" d="M 238.902344 131.015625 L 163.316406 131.015625 L 163.316406 160.882812 L 174.980469 159.230469 L 189.460938 148.859375 L 224.421875 148.859375 L 238.902344 159.230469 L 249.847656 160.882812 L 249.847656 131.015625 Z M 238.902344 131.015625 " fill-opacity="1" fill-rule="nonzero"/><path fill="#d83131" d="M 234.605469 262.105469 L 169.492188 262.105469 L 169.492188 288.878906 L 179.277344 287.238281 L 189.460938 279.941406 L 224.421875 279.941406 L 234.605469 287.238281 L 247.449219 288.089844 L 247.449219 262.105469 Z M 234.605469 262.105469 " fill-opacity="1" fill-rule="nonzero"/><path fill="#d83131" d="M 232.328125 335.144531 L 165.257812 335.144531 L 165.257812 360.492188 L 181.554688 358.652344 L 189.460938 352.980469 L 224.421875 352.980469 L 232.328125 358.652344 L 247.449219 361.261719 L 247.449219 335.144531 Z M 232.328125 335.144531 " fill-opacity="1" fill-rule="nonzero"/><g clip-path="url(#a5e21548e8)"><path fill="#e94444" d="M 255.996094 121.710938 L 255.996094 198.082031 L 238.902344 198.082031 L 238.902344 121.710938 C 238.902344 119.289062 240.867188 117.328125 243.285156 117.328125 L 251.613281 117.328125 C 254.035156 117.328125 255.996094 119.289062 255.996094 121.710938 Z M 255.996094 121.710938 " fill-opacity="1" fill-rule="nonzero"/></g><path fill="#d83131" d="M 238.902344 169.40625 L 255.996094 169.40625 L 255.996094 198.082031 L 238.902344 198.082031 Z M 238.902344 169.40625 " fill-opacity="1" fill-rule="nonzero"/><path fill="#e94444" d="M 257.796875 180.734375 L 257.796875 272.726562 L 237.097656 272.726562 L 237.097656 180.734375 C 237.097656 179.976562 237.71875 179.355469 238.480469 179.355469 L 256.417969 179.355469 C 257.183594 179.355469 257.796875 179.976562 257.796875 180.734375 Z M 257.796875 180.734375 " fill-opacity="1" fill-rule="nonzero"/><path fill="#d83131" d="M 237.097656 238.785156 L 257.796875 238.785156 L 257.796875 272.726562 L 237.097656 272.726562 Z M 237.097656 238.785156 " fill-opacity="1" fill-rule="nonzero"/><path fill="#e94444" d="M 237.097656 248.730469 L 258.5 248.730469 C 259.488281 248.730469 260.289062 249.535156 260.289062 250.523438 L 260.289062 346.683594 L 234.605469 346.683594 L 234.605469 250.523438 C 234.605469 249.535156 235.40625 248.730469 236.402344 248.730469 Z M 237.097656 248.730469 " fill-opacity="1" fill-rule="nonzero"/><path fill="#d83131" d="M 259.4375 315.082031 L 235.464844 315.082031 C 235.175781 315.082031 234.890625 315.097656 234.605469 315.113281 L 234.605469 346.683594 L 260.289062 346.683594 L 260.289062 315.113281 C 260.007812 315.097656 259.722656 315.082031 259.4375 315.082031 Z M 259.4375 315.082031 " fill-opacity="1" fill-rule="nonzero"/><path fill="#e94444" d="M 262.566406 328.164062 L 262.566406 405.035156 C 262.566406 406.800781 261.136719 408.230469 259.375 408.230469 L 235.523438 408.230469 C 233.757812 408.230469 232.328125 406.800781 232.328125 405.035156 L 232.328125 328.167969 C 232.328125 326.4375 233.730469 325.03125 235.464844 325.03125 L 259.4375 325.03125 C 261.164062 325.03125 262.566406 326.433594 262.566406 328.164062 Z M 262.566406 328.164062 " fill-opacity="1" fill-rule="nonzero"/><g clip-path="url(#57df42a628)"><path fill="#e94444" d="M 174.980469 121.710938 L 174.980469 196.910156 L 157.886719 196.910156 L 157.886719 121.710938 C 157.886719 119.289062 159.847656 117.328125 162.269531 117.328125 L 170.597656 117.328125 C 173.015625 117.328125 174.980469 119.289062 174.980469 121.710938 Z M 174.980469 121.710938 " fill-opacity="1" fill-rule="nonzero"/></g><path fill="#d83131" d="M 157.886719 169.40625 L 174.980469 169.40625 L 174.980469 196.910156 L 157.886719 196.910156 Z M 157.886719 169.40625 " fill-opacity="1" fill-rule="nonzero"/><path fill="#e94444" d="M 176.785156 180.734375 L 176.785156 270.382812 L 156.082031 270.382812 L 156.082031 180.734375 C 156.082031 179.976562 156.699219 179.355469 157.464844 179.355469 L 175.402344 179.355469 C 176.164062 179.355469 176.785156 179.976562 176.785156 180.734375 Z M 176.785156 180.734375 " fill-opacity="1" fill-rule="nonzero"/><path fill="#d83131" d="M 156.082031 238.785156 L 176.785156 238.785156 L 176.785156 270.382812 L 156.082031 270.382812 Z M 156.082031 238.785156 " fill-opacity="1" fill-rule="nonzero"/><path fill="#e94444" d="M 179.277344 250.523438 L 179.277344 345.515625 L 153.589844 345.515625 L 153.589844 250.523438 C 153.589844 249.535156 154.390625 248.730469 155.382812 248.730469 L 177.480469 248.730469 C 178.476562 248.730469 179.277344 249.535156 179.277344 250.523438 Z M 179.277344 250.523438 " fill-opacity="1" fill-rule="nonzero"/><path fill="#d83131" d="M 179.277344 315.113281 C 178.992188 315.097656 178.707031 315.082031 178.417969 315.082031 L 154.445312 315.082031 C 154.15625 315.082031 153.871094 315.09375 153.589844 315.113281 L 153.589844 345.515625 L 179.277344 345.515625 Z M 179.277344 315.113281 " fill-opacity="1" fill-rule="nonzero"/><path fill="#e94444" d="M 181.554688 328.167969 L 181.554688 405.15625 C 181.554688 406.855469 180.175781 408.230469 178.476562 408.230469 L 154.386719 408.230469 C 152.691406 408.230469 151.3125 406.855469 151.3125 405.15625 L 151.3125 328.164062 C 151.3125 326.433594 152.714844 325.03125 154.445312 325.03125 L 178.417969 325.03125 C 180.148438 325.03125 181.554688 326.4375 181.554688 328.167969 Z M 181.554688 328.167969 " fill-opacity="1" fill-rule="nonzero"/><g clip-path="url(#e1916429b2)"><path fill="#3bb4d7" d="M 230.480469 417.777344 C 231.167969 417.613281 231.929688 417.613281 232.605469 417.832031 C 233.367188 418.367188 233.898438 419.199219 233.304688 420.085938 C 232.40625 421.589844 230.070312 422.199219 228.472656 422.578125 C 227.640625 422.847656 226.929688 422.109375 227.023438 421.289062 C 227.105469 419.507812 228.9375 418.238281 230.480469 417.777344 Z M 230.480469 417.777344 " fill-opacity="1" fill-rule="nonzero"/></g><g clip-path="url(#4782b6d8a2)"><path fill="#3bb4d7" d="M 358.007812 425.714844 C 357.878906 426.652344 357.898438 427.496094 357.253906 428.265625 C 355.796875 430.128906 353.925781 431.699219 352.226562 433.339844 C 348.585938 436.820312 344.730469 440.039062 340.585938 442.894531 C 335.6875 446.183594 329.738281 447.96875 324.144531 449.75 C 318.371094 451.496094 312.1875 450.957031 306.742188 448.398438 C 305.082031 447.617188 303.59375 446.644531 301.863281 446.007812 C 300.8125 445.617188 299.816406 445.171875 298.976562 444.410156 C 297.058594 442.695312 295.371094 440.75 293.886719 438.644531 C 293.667969 438.371094 293.273438 437.78125 292.886719 438.136719 C 291.242188 439.488281 289.71875 440.964844 287.929688 442.140625 C 284.5625 444.527344 280.894531 445.835938 277.046875 447.1875 C 272.800781 448.738281 268.433594 449.574219 263.914062 449.605469 C 261.382812 449.769531 258.890625 449.429688 256.410156 448.957031 C 254.347656 448.53125 252.46875 447.679688 250.4375 447.085938 C 247.863281 446.347656 245.75 444.191406 243.621094 442.570312 C 240.257812 439.945312 238.269531 436.535156 235.828125 433.109375 C 233.089844 435.039062 230.519531 437.207031 227.757812 439.105469 C 225.207031 440.832031 222.371094 441.953125 219.625 443.40625 C 216.257812 445.191406 212.792969 447.167969 209.058594 448.035156 C 205.527344 448.875 201.703125 449.359375 198.101562 448.742188 C 193.804688 448.03125 189.253906 446.921875 185.46875 444.6875 C 182.117188 442.738281 179.671875 440.074219 176.527344 437.640625 C 174.824219 436.34375 173.328125 434.832031 171.875 433.257812 C 169.367188 435.558594 166.785156 437.453125 163.84375 439.167969 C 159.296875 441.910156 154.460938 444.722656 149.382812 446.324219 C 145.289062 447.527344 141.082031 448.476562 136.859375 449.089844 C 135.230469 449.335938 133.789062 449.835938 132.160156 449.757812 C 125.648438 449.226562 120.019531 446.59375 114.503906 443.234375 C 110.910156 440.925781 107.984375 437.238281 105.539062 433.773438 C 104.132812 434.699219 102.796875 435.6875 101.492188 436.753906 C 99.277344 438.539062 96.886719 440.054688 94.414062 441.457031 C 91.113281 443.3125 87.546875 444.582031 84.015625 445.894531 C 80.703125 447.132812 77.339844 448.21875 73.933594 449.167969 C 72.128906 449.695312 70.304688 449.6875 68.542969 450.371094 C 65.867188 451.378906 62.539062 452.128906 59.765625 451.164062 C 59.007812 450.792969 57.484375 450.089844 57.777344 449.027344 C 57.839844 448.03125 59.328125 448.015625 60.050781 447.886719 C 62.722656 447.710938 65.269531 447.015625 67.878906 446.488281 C 68.851562 446.292969 69.757812 445.933594 70.660156 445.53125 C 72.289062 444.808594 73.96875 444.371094 75.640625 443.785156 C 78.289062 442.855469 80.84375 441.75 83.421875 440.640625 C 85.875 439.585938 88.390625 438.617188 90.683594 437.28125 C 92.925781 436 94.988281 434.480469 97.019531 432.890625 C 98.511719 431.703125 99.992188 430.6875 101.316406 429.296875 C 101.953125 428.652344 102.597656 427.863281 103.371094 427.390625 C 104.722656 426.546875 106.734375 427.128906 107.433594 428.570312 C 108.027344 429.671875 108.484375 430.792969 109.335938 431.738281 C 110.859375 433.453125 112.542969 435.058594 114.257812 436.582031 C 116.679688 438.777344 119.925781 440.214844 122.914062 441.472656 C 125.398438 442.527344 127.96875 443.320312 130.667969 443.578125 C 133.328125 443.796875 135.507812 444.65625 138.140625 444.078125 C 141.164062 443.402344 144.125 442.398438 147.074219 441.441406 C 152.476562 439.554688 157.652344 436.148438 162.398438 432.972656 C 164.675781 431.460938 166.738281 429.679688 168.695312 427.773438 C 169.671875 426.871094 170.796875 425.742188 172.238281 425.9375 C 173.914062 426.265625 174.976562 427.917969 176.054688 429.113281 C 178.414062 431.953125 181.296875 433.617188 184.066406 435.96875 C 186.125 437.695312 188.046875 439.386719 190.582031 440.386719 C 193.980469 441.71875 197.636719 442.578125 201.289062 442.652344 C 203.988281 442.757812 206.816406 441.964844 209.359375 441.097656 C 212.566406 439.957031 215.4375 437.976562 218.589844 436.511719 C 220.960938 435.410156 223.230469 434.144531 225.296875 432.535156 C 227.027344 431.164062 228.730469 429.757812 230.496094 428.429688 C 232.183594 427.167969 233.828125 425.839844 236.003906 425.621094 C 237.355469 425.511719 238.40625 426.285156 239.230469 427.277344 C 240.949219 429.402344 242.25 431.875 244 433.984375 C 245.296875 435.542969 246.691406 437.105469 248.269531 438.378906 C 249.90625 439.738281 251.597656 440.8125 252.960938 442.378906 C 253.679688 443.136719 254.242188 444.066406 255.335938 444.273438 C 257.386719 444.667969 259.550781 444.886719 261.640625 444.828125 C 265.429688 444.777344 269.378906 444.339844 272.953125 443.007812 C 278.292969 441.171875 283.351562 439.148438 287.574219 435.246094 C 288.984375 433.976562 290.027344 432.386719 291.367188 431.0625 C 292.390625 429.992188 294.164062 430.132812 295.351562 430.820312 C 296.707031 431.578125 297.257812 433.328125 298.019531 434.609375 C 299.277344 436.875 301.1875 438.269531 302.910156 440.144531 C 303.734375 440.992188 304.445312 442.003906 305.367188 442.734375 C 309.175781 445.292969 313.589844 445.96875 318.09375 445.667969 C 321.152344 445.382812 324.21875 444.136719 327.109375 443.113281 C 331.050781 441.714844 334.796875 440.019531 338.203125 437.546875 C 340.347656 435.972656 342.4375 434.34375 344.769531 433.035156 C 348.382812 431.015625 351.613281 428.476562 355.042969 426.179688 C 356.078125 425.46875 356.804688 425.480469 358.007812 425.714844 Z M 358.007812 425.714844 " fill-opacity="1" fill-rule="nonzero"/></g><path fill="#3bb4d7" d="M 249.265625 426.457031 C 250.871094 427.851562 252.296875 429.457031 253.882812 430.882812 C 255.855469 432.839844 258.40625 434.191406 261.105469 434.796875 C 262.921875 435.175781 264.742188 435.148438 266.558594 434.789062 C 268.921875 434.332031 271.613281 434.234375 273.800781 433.277344 C 275.011719 432.773438 276.082031 431.96875 277.296875 431.480469 C 277.761719 431.28125 278.183594 431.398438 278.65625 431.492188 C 278.957031 432.789062 278.125 433.617188 277.285156 434.449219 C 275.199219 436.339844 272.285156 437.511719 269.679688 438.484375 C 267.8125 439.144531 266.089844 439.894531 264.070312 439.792969 C 258.917969 439.816406 253.703125 437.359375 250.605469 433.179688 C 249.332031 431.53125 247.738281 429.816406 247.050781 427.820312 C 246.882812 427.230469 246.695312 426.550781 247.265625 426.117188 C 247.839844 425.429688 248.730469 426.035156 249.265625 426.457031 Z M 249.265625 426.457031 " fill-opacity="1" fill-rule="nonzero"/><path fill="#3bb4d7" d="M 302.480469 429.175781 C 302.835938 429.570312 303.140625 430.027344 303.449219 430.460938 C 302.363281 430.441406 301.308594 430.238281 300.246094 430.03125 C 300.347656 429.683594 300.453125 429.339844 300.558594 428.992188 C 301.171875 429 301.914062 428.914062 302.480469 429.175781 Z M 302.480469 429.175781 " fill-opacity="1" fill-rule="nonzero"/><path fill="#3bb4d7" d="M 219.269531 426.09375 C 219.976562 426.792969 219.5 427.902344 218.992188 428.574219 C 217.230469 430.925781 214.816406 432.707031 212.128906 433.855469 C 208.246094 435.6875 204.171875 437.867188 199.742188 437.488281 C 197.355469 437.304688 194.65625 437.4375 192.394531 436.621094 C 189.542969 435.699219 187.195312 433.15625 185.679688 430.632812 C 186.558594 430.609375 187.394531 430.472656 188.222656 430.863281 C 190.050781 431.671875 191.382812 432.871094 193.472656 433.097656 C 196.273438 433.398438 199.167969 433.300781 201.957031 432.882812 C 205.179688 432.363281 207.4375 430.632812 210.3125 429.210938 C 212.109375 428.324219 213.511719 426.925781 215.191406 425.871094 C 216.390625 425.089844 218.238281 424.96875 219.269531 426.09375 Z M 219.269531 426.09375 " fill-opacity="1" fill-rule="nonzero"/><path fill="#3bb4d7" d="M 332.570312 431.800781 C 333.503906 431.792969 335.105469 432.390625 335.128906 433.515625 C 334.820312 434.714844 333.652344 435.355469 332.597656 435.785156 C 330.722656 436.515625 328.800781 437.089844 326.972656 437.949219 C 324.957031 438.8125 323.21875 439.96875 320.945312 439.832031 C 317 439.582031 313.207031 439.847656 309.519531 438.238281 C 308.214844 437.652344 307.574219 436.601562 307.070312 435.3125 C 309.507812 434.980469 311.84375 435.617188 314.285156 435.394531 C 315.863281 435.25 317.429688 435.011719 319.015625 434.964844 C 320.558594 434.914062 321.988281 434.636719 323.421875 434.0625 C 326.320312 432.871094 329.421875 431.925781 332.570312 431.800781 Z M 332.570312 431.800781 " fill-opacity="1" fill-rule="nonzero"/><path fill="#3bb4d7" d="M 117.894531 429.203125 C 119.183594 429.9375 120.171875 431.101562 121.558594 431.742188 C 123.457031 432.6875 125.746094 432.8125 127.570312 433.847656 C 128.597656 434.757812 129.273438 436.210938 129.703125 437.5 C 129.304688 438.640625 127.472656 438.5625 126.492188 438.652344 C 123.992188 438.808594 122.199219 437.503906 120.042969 436.445312 C 118.304688 435.589844 117.117188 434.085938 116.292969 432.359375 C 115.90625 431.550781 115.871094 430.617188 116.136719 429.765625 C 116.53125 429.089844 117.183594 428.871094 117.894531 429.203125 Z M 117.894531 429.203125 " fill-opacity="1" fill-rule="nonzero"/><g clip-path="url(#7bab6cde94)"><path fill="#3bb4d7" d="M 348.089844 443.753906 C 349.253906 443.816406 350.308594 444.1875 351.359375 444.652344 C 350.734375 445 350.199219 445.402344 349.464844 445.476562 C 346.65625 445.890625 344.082031 445.617188 341.359375 446.738281 C 338.800781 447.746094 337.390625 449.71875 335.140625 451.328125 C 333.089844 452.929688 330.890625 454.046875 328.429688 454.851562 C 325.253906 456.097656 321.941406 456.890625 318.53125 457.066406 C 316.023438 457.089844 313.546875 456.863281 311.070312 456.457031 C 307.324219 456.03125 303.476562 456.207031 299.742188 455.65625 C 296.359375 454.933594 293.089844 453.449219 289.96875 451.980469 C 287.929688 453.546875 286.628906 455.316406 284.261719 456.34375 C 281.78125 457.496094 279.175781 457.378906 276.535156 456.957031 C 275.234375 456.738281 273.894531 456.125 272.582031 456.15625 C 271.148438 456.386719 269.804688 457.019531 268.375 457.292969 C 264.179688 458.113281 259.824219 457.683594 255.5625 457.480469 C 253.128906 457.371094 250.992188 456.601562 248.714844 455.824219 C 244.457031 454.460938 240.632812 451.097656 237.003906 448.527344 C 236.566406 448.257812 236.128906 447.984375 235.605469 447.921875 C 234.726562 448.179688 233.929688 448.851562 233.1875 449.375 C 230.75 451.214844 228.085938 452.671875 225.308594 453.921875 C 222.585938 455.136719 220.144531 456.519531 217.199219 457.074219 C 212.234375 457.972656 207.160156 458.066406 202.160156 457.371094 C 200.53125 457.117188 199.167969 456.355469 197.734375 455.609375 C 196.242188 454.800781 194.375 455.007812 192.707031 454.859375 C 189.242188 454.683594 185.78125 453.363281 182.898438 451.449219 C 179.890625 449.585938 176.933594 447.71875 174.097656 445.59375 C 171.957031 446.898438 169.996094 448.445312 167.789062 449.644531 C 164.917969 451.214844 162.257812 452.957031 159.21875 454.191406 C 156.898438 455.136719 154.667969 456.289062 152.335938 457.195312 C 148.75 458.59375 144.683594 458.570312 140.855469 458.867188 C 138.46875 458.90625 135.550781 459.042969 133.488281 457.652344 C 132.0625 456.824219 131.125 455.339844 129.355469 455.40625 C 125.226562 455.207031 121.054688 455.175781 116.945312 454.710938 C 113.734375 454.175781 110.417969 453.410156 107.488281 451.949219 C 104.445312 450.226562 101.554688 448.15625 98.847656 445.941406 C 95.492188 447.570312 92.324219 449.691406 89.074219 451.5 C 87.046875 452.566406 84.976562 453.59375 82.902344 454.566406 C 79.785156 456.03125 76.597656 456.734375 73.261719 457.492188 C 70.878906 458.007812 68.632812 458.5 66.179688 458.292969 C 64.359375 458.125 62.578125 457.523438 61.523438 455.929688 C 63.457031 455.921875 65.375 456.210938 67.226562 455.925781 C 70.003906 455.539062 72.789062 454.480469 75.519531 453.710938 C 77.476562 453.15625 79.265625 452.40625 81.039062 451.410156 C 86.265625 448.53125 91.429688 445.492188 96.351562 442.117188 C 97.476562 441.324219 98.90625 441.140625 100.105469 441.882812 C 101.546875 442.808594 102.71875 444.113281 104.152344 445.074219 C 105.921875 446.257812 107.71875 447.472656 109.648438 448.375 C 112.851562 449.757812 116.386719 450.511719 119.839844 450.914062 C 123.785156 451.257812 127.753906 451.300781 131.699219 451.589844 C 133.089844 451.636719 133.949219 452.859375 135.023438 453.589844 C 136.394531 454.703125 138.527344 454.535156 140.195312 454.527344 C 143.449219 454.304688 146.984375 454.230469 150.132812 453.351562 C 152.445312 452.71875 154.324219 451.542969 156.617188 450.621094 C 158.511719 449.859375 160.347656 448.996094 162.105469 447.953125 C 165 446.226562 167.863281 444.917969 170.484375 442.765625 C 171.457031 442.039062 172.558594 441.007812 173.769531 440.75 C 175.074219 440.539062 175.875 441.484375 176.808594 442.21875 C 179.242188 444.367188 181.898438 445.726562 184.628906 447.566406 C 187.308594 449.386719 190.390625 450.679688 193.644531 450.863281 C 195.144531 450.976562 196.734375 450.539062 198.203125 450.820312 C 199.984375 451.390625 201.308594 452.765625 203.257812 453.117188 C 205.632812 453.503906 208.058594 453.40625 210.441406 453.148438 C 212.421875 452.925781 214.445312 452.867188 216.410156 452.496094 C 218.691406 452.058594 220.703125 450.691406 222.867188 449.765625 C 224.921875 448.886719 226.953125 448.101562 228.789062 446.785156 C 230.640625 445.558594 232.5 443.699219 234.625 443.03125 C 236.132812 442.535156 237.644531 443.761719 238.851562 444.527344 C 241.632812 446.539062 244.359375 448.589844 247.375 450.246094 C 249.492188 451.429688 251.984375 452.023438 254.320312 452.628906 C 258.246094 453.671875 262.566406 453.171875 266.585938 452.808594 C 268.613281 452.625 270.265625 451.371094 272.234375 451.117188 C 273.554688 451.109375 274.914062 451.742188 276.1875 452.054688 C 278.753906 452.761719 281.742188 452.773438 283.953125 451.09375 C 285.464844 450.039062 286.484375 448.210938 288.097656 447.371094 C 289.652344 446.785156 291.21875 447.460938 292.59375 448.179688 C 295.972656 449.875 299.699219 450.929688 303.425781 451.476562 C 306.703125 451.90625 310.195312 451.707031 313.507812 452.308594 C 316.199219 452.789062 318.933594 452.875 321.636719 452.410156 C 324.351562 452.039062 326.679688 451.015625 329.292969 450.226562 C 331.796875 449.453125 333.414062 447.839844 335.574219 446.464844 C 337.367188 445.277344 339.316406 444.363281 341.417969 443.890625 C 343.523438 443.363281 345.925781 443.632812 348.089844 443.753906 Z M 348.089844 443.753906 " fill-opacity="1" fill-rule="nonzero"/></g><path fill="#3bb4d7" d="M 144.054688 435.414062 C 143.761719 435.914062 143.503906 436.527344 143.070312 436.917969 C 141.605469 438.015625 139.984375 438.753906 138.125 438.640625 C 138.367188 437.890625 138.359375 437.199219 139.105469 436.757812 C 140.566406 435.839844 142.285156 434.945312 144.054688 435.414062 Z M 144.054688 435.414062 " fill-opacity="1" fill-rule="nonzero"/><g transform="matrix(1, 0, 0, 1, 404, 179)"><g clip-path="url(#9c7ea2c9bc)"><g fill="#249eb1" fill-opacity="1"><g transform="translate(2.200413, 99.528465)"><g><path d="M 61.09375 -37.25 C 65.1875 -35.957031 68.394531 -33.789062 70.71875 -30.75 C 73.039062 -27.71875 74.203125 -23.984375 74.203125 -19.546875 C 74.203125 -13.265625 71.757812 -8.4375 66.875 -5.0625 C 62 -1.6875 54.890625 0 45.546875 0 L 8.5 0 L 8.5 -71.640625 L 43.5 -71.640625 C 52.226562 -71.640625 58.929688 -69.96875 63.609375 -66.625 C 68.285156 -63.28125 70.625 -58.742188 70.625 -53.015625 C 70.625 -49.535156 69.785156 -46.429688 68.109375 -43.703125 C 66.441406 -40.972656 64.101562 -38.820312 61.09375 -37.25 Z M 24.96875 -59.15625 L 24.96875 -42.265625 L 41.453125 -42.265625 C 45.546875 -42.265625 48.648438 -42.976562 50.765625 -44.40625 C 52.878906 -45.84375 53.9375 -47.960938 53.9375 -50.765625 C 53.9375 -53.554688 52.878906 -55.648438 50.765625 -57.046875 C 48.648438 -58.453125 45.546875 -59.15625 41.453125 -59.15625 Z M 44.3125 -12.484375 C 48.675781 -12.484375 51.96875 -13.195312 54.1875 -14.625 C 56.40625 -16.0625 57.515625 -18.28125 57.515625 -21.28125 C 57.515625 -27.21875 53.113281 -30.1875 44.3125 -30.1875 L 24.96875 -30.1875 L 24.96875 -12.484375 Z M 44.3125 -12.484375 "/></g></g></g><g fill="#249eb1" fill-opacity="1"><g transform="translate(80.468582, 99.528465)"><g><path d="M 55.671875 -15.359375 L 22.40625 -15.359375 L 16.0625 0 L -0.921875 0 L 31.015625 -71.640625 L 47.390625 -71.640625 L 79.421875 0 L 62.015625 0 Z M 50.453125 -27.9375 L 39.09375 -55.375 L 27.734375 -27.9375 Z M 50.453125 -27.9375 "/></g></g></g><g fill="#249eb1" fill-opacity="1"><g transform="translate(158.839075, 99.528465)"><g><path d="M 42.875 -25.375 L 42.875 0 L 26.296875 0 L 26.296875 -25.59375 L -1.4375 -71.640625 L 16.171875 -71.640625 L 35.3125 -39.8125 L 54.453125 -71.640625 L 70.71875 -71.640625 Z M 42.875 -25.375 "/></g></g></g><g fill="#249eb1" fill-opacity="1"><g transform="translate(256.955639, 99.528465)"><g><path d="M 55.671875 -15.359375 L 22.40625 -15.359375 L 16.0625 0 L -0.921875 0 L 31.015625 -71.640625 L 47.390625 -71.640625 L 79.421875 0 L 62.015625 0 Z M 50.453125 -27.9375 L 39.09375 -55.375 L 27.734375 -27.9375 Z M 50.453125 -27.9375 "/></g></g></g><g fill="#249eb1" fill-opacity="1"><g transform="translate(335.326132, 99.528465)"><g><path d="M 54.140625 0 L 40.328125 -19.953125 L 25.078125 -19.953125 L 25.078125 0 L 8.5 0 L 8.5 -71.640625 L 39.5 -71.640625 C 45.84375 -71.640625 51.351562 -70.582031 56.03125 -68.46875 C 60.707031 -66.351562 64.304688 -63.347656 66.828125 -59.453125 C 69.359375 -55.566406 70.625 -50.960938 70.625 -45.640625 C 70.625 -40.316406 69.34375 -35.726562 66.78125 -31.875 C 64.21875 -28.019531 60.582031 -25.070312 55.875 -23.03125 L 71.953125 0 Z M 53.828125 -45.640625 C 53.828125 -49.671875 52.53125 -52.757812 49.9375 -54.90625 C 47.351562 -57.050781 43.566406 -58.125 38.578125 -58.125 L 25.078125 -58.125 L 25.078125 -33.15625 L 38.578125 -33.15625 C 43.566406 -33.15625 47.351562 -34.242188 49.9375 -36.421875 C 52.53125 -38.609375 53.828125 -41.679688 53.828125 -45.640625 Z M 53.828125 -45.640625 "/></g></g></g><g fill="#249eb1" fill-opacity="1"><g transform="translate(410.524956, 99.528465)"><g><path d="M 63.96875 -13.3125 L 63.96875 0 L 8.5 0 L 8.5 -71.640625 L 62.640625 -71.640625 L 62.640625 -58.34375 L 24.96875 -58.34375 L 24.96875 -42.78125 L 58.234375 -42.78125 L 58.234375 -29.890625 L 24.96875 -29.890625 L 24.96875 -13.3125 Z M 63.96875 -13.3125 "/></g></g></g><g fill="#249eb1" fill-opacity="1"><g transform="translate(479.175853, 99.528465)"><g><path d="M 55.671875 -15.359375 L 22.40625 -15.359375 L 16.0625 0 L -0.921875 0 L 31.015625 -71.640625 L 47.390625 -71.640625 L 79.421875 0 L 62.015625 0 Z M 50.453125 -27.9375 L 39.09375 -55.375 L 27.734375 -27.9375 Z M 50.453125 -27.9375 "/></g></g></g></g></g><g transform="matrix(1, 0, 0, 1, 402, 287)"><g clip-path="url(#2939bb0489)"><g fill="#ff4444" fill-opacity="1"><g transform="translate(1.187934, 85.998495)"><g><path d="M 7.296875 -61.59375 L 35.28125 -61.59375 C 41.96875 -61.59375 47.875 -60.316406 53 -57.765625 C 58.132812 -55.210938 62.125 -51.617188 64.96875 -46.984375 C 67.820312 -42.347656 69.25 -36.953125 69.25 -30.796875 C 69.25 -24.640625 67.820312 -19.242188 64.96875 -14.609375 C 62.125 -9.972656 58.132812 -6.378906 53 -3.828125 C 47.875 -1.273438 41.96875 0 35.28125 0 L 7.296875 0 Z M 34.578125 -11.703125 C 40.734375 -11.703125 45.644531 -13.414062 49.3125 -16.84375 C 52.976562 -20.28125 54.8125 -24.929688 54.8125 -30.796875 C 54.8125 -36.660156 52.976562 -41.304688 49.3125 -44.734375 C 45.644531 -48.171875 40.734375 -49.890625 34.578125 -49.890625 L 21.5625 -49.890625 L 21.5625 -11.703125 Z M 34.578125 -11.703125 "/></g></g></g><g fill="#ff4444" fill-opacity="1"><g transform="translate(75.61579, 85.998495)"><g><path d="M 7.296875 -61.59375 L 21.5625 -61.59375 L 21.5625 0 L 7.296875 0 Z M 7.296875 -61.59375 "/></g></g></g><g fill="#ff4444" fill-opacity="1"><g transform="translate(106.231774, 85.998495)"><g><path d="M 27.546875 1.0625 C 22.671875 1.0625 17.957031 0.398438 13.40625 -0.921875 C 8.863281 -2.242188 5.21875 -3.960938 2.46875 -6.078125 L 7.296875 -16.8125 C 9.941406 -14.875 13.082031 -13.316406 16.71875 -12.140625 C 20.351562 -10.960938 23.988281 -10.375 27.625 -10.375 C 31.675781 -10.375 34.664062 -10.972656 36.59375 -12.171875 C 38.53125 -13.378906 39.5 -14.984375 39.5 -16.984375 C 39.5 -18.453125 38.925781 -19.664062 37.78125 -20.625 C 36.644531 -21.59375 35.179688 -22.367188 33.390625 -22.953125 C 31.597656 -23.546875 29.175781 -24.195312 26.125 -24.90625 C 21.4375 -26.019531 17.597656 -27.132812 14.609375 -28.25 C 11.617188 -29.363281 9.050781 -31.148438 6.90625 -33.609375 C 4.769531 -36.078125 3.703125 -39.363281 3.703125 -43.46875 C 3.703125 -47.039062 4.664062 -50.28125 6.59375 -53.1875 C 8.53125 -56.09375 11.445312 -58.394531 15.34375 -60.09375 C 19.25 -61.789062 24.019531 -62.640625 29.65625 -62.640625 C 33.582031 -62.640625 37.421875 -62.171875 41.171875 -61.234375 C 44.929688 -60.296875 48.21875 -58.945312 51.03125 -57.1875 L 46.625 -46.375 C 40.9375 -49.59375 35.25 -51.203125 29.5625 -51.203125 C 25.570312 -51.203125 22.625 -50.554688 20.71875 -49.265625 C 18.8125 -47.972656 17.859375 -46.273438 17.859375 -44.171875 C 17.859375 -42.054688 18.957031 -40.484375 21.15625 -39.453125 C 23.351562 -38.429688 26.710938 -37.421875 31.234375 -36.421875 C 35.921875 -35.304688 39.757812 -34.191406 42.75 -33.078125 C 45.75 -31.960938 48.316406 -30.203125 50.453125 -27.796875 C 52.597656 -25.398438 53.671875 -22.144531 53.671875 -18.03125 C 53.671875 -14.507812 52.6875 -11.296875 50.71875 -8.390625 C 48.757812 -5.492188 45.8125 -3.191406 41.875 -1.484375 C 37.945312 0.210938 33.171875 1.0625 27.546875 1.0625 Z M 27.546875 1.0625 "/></g></g></g><g fill="#ff4444" fill-opacity="1"><g transform="translate(164.120211, 85.998495)"><g><path d="M 36.78125 1.0625 C 30.5 1.0625 24.820312 -0.300781 19.75 -3.03125 C 14.675781 -5.757812 10.6875 -9.539062 7.78125 -14.375 C 4.882812 -19.21875 3.4375 -24.691406 3.4375 -30.796875 C 3.4375 -36.890625 4.882812 -42.359375 7.78125 -47.203125 C 10.6875 -52.046875 14.675781 -55.828125 19.75 -58.546875 C 24.820312 -61.273438 30.523438 -62.640625 36.859375 -62.640625 C 42.203125 -62.640625 47.03125 -61.703125 51.34375 -59.828125 C 55.65625 -57.953125 59.273438 -55.253906 62.203125 -51.734375 L 53.046875 -43.28125 C 48.890625 -48.09375 43.726562 -50.5 37.5625 -50.5 C 33.75 -50.5 30.347656 -49.660156 27.359375 -47.984375 C 24.367188 -46.316406 22.035156 -43.988281 20.359375 -41 C 18.691406 -38.007812 17.859375 -34.609375 17.859375 -30.796875 C 17.859375 -26.984375 18.691406 -23.578125 20.359375 -20.578125 C 22.035156 -17.585938 24.367188 -15.257812 27.359375 -13.59375 C 30.347656 -11.925781 33.75 -11.09375 37.5625 -11.09375 C 43.726562 -11.09375 48.890625 -13.523438 53.046875 -18.390625 L 62.203125 -9.9375 C 59.273438 -6.363281 55.640625 -3.632812 51.296875 -1.75 C 46.953125 0.125 42.113281 1.0625 36.78125 1.0625 Z M 36.78125 1.0625 "/></g></g></g><g fill="#ff4444" fill-opacity="1"><g transform="translate(230.366328, 85.998495)"><g><path d="M 37.125 1.0625 C 30.738281 1.0625 24.976562 -0.316406 19.84375 -3.078125 C 14.707031 -5.835938 10.6875 -9.632812 7.78125 -14.46875 C 4.882812 -19.3125 3.4375 -24.753906 3.4375 -30.796875 C 3.4375 -36.835938 4.882812 -42.273438 7.78125 -47.109375 C 10.6875 -51.953125 14.707031 -55.75 19.84375 -58.5 C 24.976562 -61.257812 30.738281 -62.640625 37.125 -62.640625 C 43.519531 -62.640625 49.269531 -61.257812 54.375 -58.5 C 59.476562 -55.75 63.492188 -51.953125 66.421875 -47.109375 C 69.359375 -42.273438 70.828125 -36.835938 70.828125 -30.796875 C 70.828125 -24.753906 69.359375 -19.3125 66.421875 -14.46875 C 63.492188 -9.632812 59.476562 -5.835938 54.375 -3.078125 C 49.269531 -0.316406 43.519531 1.0625 37.125 1.0625 Z M 37.125 -11.09375 C 40.757812 -11.09375 44.046875 -11.925781 46.984375 -13.59375 C 49.921875 -15.257812 52.222656 -17.585938 53.890625 -20.578125 C 55.554688 -23.578125 56.390625 -26.984375 56.390625 -30.796875 C 56.390625 -34.609375 55.554688 -38.007812 53.890625 -41 C 52.222656 -43.988281 49.921875 -46.316406 46.984375 -47.984375 C 44.046875 -49.660156 40.757812 -50.5 37.125 -50.5 C 33.488281 -50.5 30.203125 -49.660156 27.265625 -47.984375 C 24.335938 -46.316406 22.035156 -43.988281 20.359375 -41 C 18.691406 -38.007812 17.859375 -34.609375 17.859375 -30.796875 C 17.859375 -26.984375 18.691406 -23.578125 20.359375 -20.578125 C 22.035156 -17.585938 24.335938 -15.257812 27.265625 -13.59375 C 30.203125 -11.925781 33.488281 -11.09375 37.125 -11.09375 Z M 37.125 -11.09375 "/></g></g></g><g fill="#ff4444" fill-opacity="1"><g transform="translate(306.377746, 85.998495)"><g><path d="M 34.671875 1.0625 C 25.867188 1.0625 19.019531 -1.367188 14.125 -6.234375 C 9.226562 -11.109375 6.78125 -18.0625 6.78125 -27.09375 L 6.78125 -61.59375 L 21.03125 -61.59375 L 21.03125 -27.625 C 21.03125 -16.601562 25.601562 -11.09375 34.75 -11.09375 C 39.207031 -11.09375 42.609375 -12.425781 44.953125 -15.09375 C 47.304688 -17.757812 48.484375 -21.9375 48.484375 -27.625 L 48.484375 -61.59375 L 62.5625 -61.59375 L 62.5625 -27.09375 C 62.5625 -18.0625 60.109375 -11.109375 55.203125 -6.234375 C 50.304688 -1.367188 43.460938 1.0625 34.671875 1.0625 Z M 34.671875 1.0625 "/></g></g></g><g fill="#ff4444" fill-opacity="1"><g transform="translate(377.462506, 85.998495)"><g><path d="M 63.78125 -61.59375 L 63.78125 0 L 52.09375 0 L 21.375 -37.390625 L 21.375 0 L 7.296875 0 L 7.296875 -61.59375 L 19.09375 -61.59375 L 49.71875 -24.203125 L 49.71875 -61.59375 Z M 63.78125 -61.59375 "/></g></g></g><g fill="#ff4444" fill-opacity="1"><g transform="translate(450.306798, 85.998495)"><g><path d="M 20.0625 -49.96875 L 0.359375 -49.96875 L 0.359375 -61.59375 L 54.015625 -61.59375 L 54.015625 -49.96875 L 34.3125 -49.96875 L 34.3125 0 L 20.0625 0 Z M 20.0625 -49.96875 "/></g></g></g><g fill="#ff4444" fill-opacity="1"><g transform="translate(506.435704, 85.998495)"><g><path d="M 27.546875 1.0625 C 22.671875 1.0625 17.957031 0.398438 13.40625 -0.921875 C 8.863281 -2.242188 5.21875 -3.960938 2.46875 -6.078125 L 7.296875 -16.8125 C 9.941406 -14.875 13.082031 -13.316406 16.71875 -12.140625 C 20.351562 -10.960938 23.988281 -10.375 27.625 -10.375 C 31.675781 -10.375 34.664062 -10.972656 36.59375 -12.171875 C 38.53125 -13.378906 39.5 -14.984375 39.5 -16.984375 C 39.5 -18.453125 38.925781 -19.664062 37.78125 -20.625 C 36.644531 -21.59375 35.179688 -22.367188 33.390625 -22.953125 C 31.597656 -23.546875 29.175781 -24.195312 26.125 -24.90625 C 21.4375 -26.019531 17.597656 -27.132812 14.609375 -28.25 C 11.617188 -29.363281 9.050781 -31.148438 6.90625 -33.609375 C 4.769531 -36.078125 3.703125 -39.363281 3.703125 -43.46875 C 3.703125 -47.039062 4.664062 -50.28125 6.59375 -53.1875 C 8.53125 -56.09375 11.445312 -58.394531 15.34375 -60.09375 C 19.25 -61.789062 24.019531 -62.640625 29.65625 -62.640625 C 33.582031 -62.640625 37.421875 -62.171875 41.171875 -61.234375 C 44.929688 -60.296875 48.21875 -58.945312 51.03125 -57.1875 L 46.625 -46.375 C 40.9375 -49.59375 35.25 -51.203125 29.5625 -51.203125 C 25.570312 -51.203125 22.625 -50.554688 20.71875 -49.265625 C 18.8125 -47.972656 17.859375 -46.273438 17.859375 -44.171875 C 17.859375 -42.054688 18.957031 -40.484375 21.15625 -39.453125 C 23.351562 -38.429688 26.710938 -37.421875 31.234375 -36.421875 C 35.921875 -35.304688 39.757812 -34.191406 42.75 -33.078125 C 45.75 -31.960938 48.316406 -30.203125 50.453125 -27.796875 C 52.597656 -25.398438 53.671875 -22.144531 53.671875 -18.03125 C 53.671875 -14.507812 52.6875 -11.296875 50.71875 -8.390625 C 48.757812 -5.492188 45.8125 -3.191406 41.875 -1.484375 C 37.945312 0.210938 33.171875 1.0625 27.546875 1.0625 Z M 27.546875 1.0625 "/></g></g></g></g></g></svg>