<?xml version="1.0" encoding="UTF-8" standalone="no"?>
<!-- Created with Inkscape (http://www.inkscape.org/) -->
<svg id="svg6702" xmlns:rdf="http://www.w3.org/1999/02/22-rdf-syntax-ns#" xmlns="http://www.w3.org/2000/svg" height="127.65" width="301.19" version="1.1" xmlns:cc="http://creativecommons.org/ns#" xmlns:dc="http://purl.org/dc/elements/1.1/" viewBox="0 0 301.18799 127.64601">
 <defs id="defs6704">
  <clipPath id="clipPath7286" clipPathUnits="userSpaceOnUse">
   <path id="path7288" d="m46.792 689.47h189.89v51.059h-189.89v-51.059z"/>
  </clipPath>
  <clipPath id="clipPath7306" clipPathUnits="userSpaceOnUse">
   <path id="path7308" d="m46.792 689.47h189.89v51.059h-189.89v-51.059z"/>
  </clipPath>
 </defs>
 <metadata id="metadata6707">
  <rdf:RDF>
   <cc:Work rdf:about="">
    <dc:format>image/svg+xml</dc:format>
    <dc:type rdf:resource="http://purl.org/dc/dcmitype/StillImage"/>
    <dc:title/>
   </cc:Work>
  </rdf:RDF>
 </metadata>
 <g id="layer1" transform="translate(0 -924.72)">
  <g id="g7274" transform="matrix(1.25 0 0 -1.25 70.702 1004)">
   <path id="path7276" d="m0 0 5.721 6.863h-23.84l-5.746-6.865" fill="#006f53"/>
  </g>
  <g id="g7278" transform="matrix(1.25 0 0 -1.25 153.34 995.39)">
   <path id="path7280" d="m0 0h6.077c1.911 2.301 7.419 8.931 8.66 10.424 2.517 3.029 6.011 4.99 8.985 4.99 5.072 0 26.32-0.003 26.32-0.003l5.782 6.916h-33.719c-4.058 0-9.492-3.773-12.081-6.898-1.214-1.468-2.478-2.942-12.858-15.423 1.013-0.021 1.995-0.006 2.834-0.006" fill="#006f53"/>
  </g>
  <g id="g7282" transform="matrix(1.25 0 0 -1.25 -26.578 1882.3)">
   <g id="g7284" clip-path="url(#clipPath7286)">
    <g id="g7290" transform="translate(150.01 709.52)">
     <path id="path7292" d="m0 0h-6.077c-0.839 0-1.821-0.015-2.834 0.006-0.737 0.015-1.47 0.072-2.198 0.147h-0.004c2.61 3.128 13.62 16.329 13.646 16.361 3.619 4.409 9.394 7.583 13.336 7.583 1.843 0 35.321 0.007 35.321 0.007l5.792 6.901h-42.05c-6.063 0.053-13.013-4.357-16.556-8.681-0.003-0.004-10.967-13.137-13.515-16.218-0.03-0.036-0.053-0.069-0.082-0.106 0.003 0.005 0.006 0.01 0.007 0.014-5.04-6.059-2.889-12.878 9.647-12.878 15.002 0 73.462 0.014 84.294 0.014l5.714 6.848" fill="#a7a9ac"/>
    </g>
   </g>
  </g>
  <g id="g7294" transform="matrix(1.25 0 0 -1.25 153.55 1006.2)">
   <path id="path7296" d="m0 0c-9.684 0-11.515 3.672-11.804 6.449 0-7.113 2.525-13.384 15.319-13.384l73.896 0.042 5.746 6.91c-26.15 0-83.137-0.017-83.157-0.017" fill="#006f53"/>
  </g>
  <g id="g7298" transform="matrix(1.25 0 0 -1.25 114.79 981.05)">
   <path id="path7300" d="m0 0c0 0.558-0.004 10.723-0.004 10.723l-35.122-42.239h8.922l10.97 13.195 15.186-0.015v6.864h-9.492c5.084 6.115 9.395 11.299 9.54 11.472" fill="#006f53"/>
  </g>
  <g id="g7302" transform="matrix(1.25 0 0 -1.25 -26.578 1882.3)">
   <g id="g7304" clip-path="url(#clipPath7306)">
    <g id="g7310" transform="translate(116.97 740.53)">
     <path id="path7312" d="m0 0h-6.413c-0.098 0.007-0.166 0.002-0.193 0h-0.017 0.007c-1.241 0-2.619-1.878-4.674-4.355-0.671-0.809-18.079-21.724-29.368-35.287l-23.861 0.006-5.656-6.926h23.757c-2.308-2.773-3.74-4.494-3.74-4.494l8.851 0.005s36.086 43.464 37.384 45.018v-0.043c0-1.581-0.001-24.13-0.001-33.569-0.942 0-16.685-0.002-16.685-0.002l-5.75-6.935c19.82 0.021 19.873 0.021 20.184 0.021 0.302 0 0.632 0.008 0.943 0.099-0.317-0.096-0.648-0.1-0.935-0.1 0.765 0 6.15 0.001 6.829 0.001 0.593 0 2.308 0.131 2.308 3.12v37.466c0 6.251-2.97 5.975-2.97 5.975" fill="#a7a9ac"/>
    </g>
    <g id="g7314" transform="translate(119.01 740.53)">
     <path id="path7316" d="m0 0c0.138 0 2.701 0.256 2.701-6.076v-37.61c0-2.855-1.351-2.876-2.255-2.876s6.061 0.001 6.839 0.001c0.594 0 2.309 0.131 2.309 3.12v37.466c0 6.251-2.97 5.975-2.97 5.975" fill="#006f53"/>
    </g>
   </g>
  </g>
  <g id="g7318" transform="matrix(1.25 0 0 -1.25 183.46 981.96)">
   <path id="path7320" d="m0 0h-3.452l1.275 1.556h9.324l-1.274-1.556h-3.455l-6.817-8.319h-2.418" fill="#231f20"/>
  </g>
  <g id="g7322" transform="matrix(1.25 0 0 -1.25 193.61 985.28)">
   <path id="path7324" d="m0 0h0.795c1.191 0 2.672 0.141 3.68 1.372 0.973 1.188-0.292 1.288-1.5 1.288h-0.795l-2.18-2.66zm1.038 4.216h2.607c2.59 0 5.739 0.071 3.49-2.674-0.951-1.16-2.689-2.122-4.365-2.292l-0.023-0.029c0.622-0.042 0.561-0.579 0.443-1.018l-1.231-3.862h-2.694l1.078 3.084c0.257 0.735 0.178 1.018-0.841 1.018h-0.777l-3.362-4.102h-2.418" fill="#231f20"/>
  </g>
  <g id="g7326" transform="matrix(1.25 0 0 -1.25 212.74 982.49)">
   <path id="path7328" d="m0 0h-0.035l-5.083-4.075h3.523l1.595 4.075zm0.294 1.981h2.728l-3.361-9.876h-2.677l0.819 2.264h-4.887l-2.908-2.264h-2.504" fill="#231f20"/>
  </g>
  <g id="g7330" transform="matrix(1.25 0 0 -1.25 223.72 980.01)">
   <path id="path7332" d="m0 0h2.97l-1.458-7.385h0.035l6.051 7.385h2.314l-8.093-9.875h-2.953l1.442 7.385h-0.035l-6.052-7.385h-2.313" fill="#231f20"/>
  </g>
  <g id="g7334" transform="matrix(1.25 0 0 -1.25 246.03 982.06)">
   <path id="path7336" d="m0 0c-0.538 0.269-1.257 0.425-2.104 0.425-0.828 0-2.142-0.297-3.024-1.373-1.403-1.712 4.473-0.99 1.76-4.301-1.774-2.165-4.536-2.985-6.971-2.985-1.311 0-1.783 0.141-2.777 0.381l1.686 1.784c0.526-0.368 1.279-0.609 2.229-0.609 0.915 0 2.454 0.382 3.185 1.273 1.541 1.882-4.38 1.104-1.703 4.372 1.809 2.207 4.559 3.014 6.683 3.014 1.036 0 1.911-0.114 2.594-0.354" fill="#231f20"/>
  </g>
  <g id="g7338" transform="matrix(1.25 0 0 -1.25 252.14 980.01)">
   <path id="path7340" d="m0 0h2.418l-8.093-9.875h-2.417" fill="#231f20"/>
  </g>
  <g id="g7342" transform="matrix(1.25 0 0 -1.25 260.34 981.96)">
   <path id="path7344" d="m0 0h-3.454l1.276 1.556h9.324l-1.275-1.556h-3.454l-6.817-8.319h-2.417" fill="#231f20"/>
  </g>
 </g>
</svg>
