<?xml version="1.0" encoding="UTF-8"?>
<svg width="500" height="600" version="1.1" xmlns="http://www.w3.org/2000/svg">
 <path d="m15.202 13.601h469.6v572.8h-469.6z" fill="#fff" stroke-width="3.6009"/>
 <path d="m15.202 13.601h469.6v572.8h-469.6z" fill="none" stroke="#7d9fd3" stroke-width="7.2018"/>
 <g stroke-width="3.6009">
  <path d="m470.27 366.49v7.6149h-47.273l-21.241-3.4623 68.511-5.666zm-20.131-11.724 20.131 2.3997v2.9487l-87.387 7.4892-26.812-4.517zm-47.608-5.7366 31.325 3.7565-94.989 7.599-28.265-4.6466zm67.737-59.329v63.974l-50.1-5.8817c2.9755-0.49812 8.6386 0 8.0599-2.9839-3.1561-16.273-0.46816-41.241 5.136-55.108zm-440.25 23.182 349.25 62.033h-349.25z" fill="#edac09"/>
  <path d="m470.63 29.193v149.56c-0.1361-1.3337-0.27222-2.7527-0.40149-4.2779-2.5145-30.181-28.036-51.673-56.704-48.025-6.1389 0.78392-11.938 2.6586-17.215 5.3643 0.10874-0.69004 0.26935-7.1601 0.0681-9.4265-2.2675-25.762-24.279-44.072-49.174-40.914-8.9188 1.1446-17.004 4.8857-23.59 10.399l-0.10875-1.5763c-2.5146-28.632-31.837-48.346-65.49-44.061-28.843 3.6661-51.497 23.766-55.811 47.453-0.49812-0.77985-1.2167-1.5175-1.8214-2.1447-4.5609-4.6934-11.323-7.2501-18.594-6.3171-12.392 1.5724-21.576 12.634-20.5 24.868-9.1218-8.7049-21.79-13.32-35.296-11.591-19.74 2.5133-35.366 17.782-39.837 37.01-3.3072-1.1963-42.768-8.5792-56.16 36.434v-142.75z" fill="#7d9fd3"/>
  <path d="m30.113 387.3h440.14v183.17h-440.14z" fill="#142a5e"/>
  <path d="m404.45 491.05h24.574c6.8356 0 12.13 2.0428 15.663 5.7993 2.9976 3.184 4.6088 7.6775 4.6088 13.069v0.16061c0 9.2263-4.6862 15.026-11.518 17.723l13.13 20.413h-13.822l-11.515-18.292h-9.295v18.292h-11.824zm23.804 27.769c5.7629 0 9.0628-3.2702 9.0628-8.0852v-0.16456c0-5.3877-3.5323-8.1676-9.2914-8.1676h-11.751v16.418zm-86.315 1.0021v-0.16888c0-16.249 12.057-29.561 28.641-29.561s28.482 13.151 28.482 29.4v0.1606c0 16.253-12.049 29.561-28.637 29.561s-28.486-13.143-28.486-29.392m44.763 0v-0.16888c0-9.7988-6.7546-17.962-16.278-17.962-9.5237 0-16.123 8.003-16.123 17.802v0.1606c0 9.7988 6.7582 17.97 16.278 17.97 9.5237 0 16.123-8.003 16.123-17.802m-98.057-28.771h20.957c16.894 0 28.567 12.332 28.567 28.42v0.1606c0 16.088-11.673 28.585-28.567 28.585h-20.957zm20.957 45.814c9.6786 0 16.201-6.9404 16.201-17.064v-0.16889c0-10.12-6.5223-17.229-16.201-17.229h-9.1326v34.462zm-41.446-45.814h11.824v57.165h-11.824zm-51.302 0h24.57c6.832 0 12.134 2.0428 15.663 5.7993 2.9975 3.184 4.6088 7.6775 4.6088 13.069v0.16061c0 9.2263-4.6826 15.026-11.518 17.723l13.133 20.413h-13.822l-11.522-18.292h-9.2839v18.292h-11.828zm23.804 27.769c5.7554 0 9.0592-3.2702 9.0592-8.0852v-0.16456c0-5.3877-3.5323-8.1676-9.2914-8.1676h-11.743v16.418zm-75.585-27.769h24.574c6.832 0 12.13 2.0428 15.663 5.7993 2.9939 3.184 4.6052 7.6775 4.6052 13.069v0.16061c0 9.2263-4.6826 15.026-11.515 17.723l13.13 20.413h-13.822l-11.518-18.292h-9.2875v18.292h-11.828zm23.804 27.769c5.759 0 9.0628-3.2702 9.0628-8.0852v-0.16456c0-5.3877-3.5323-8.1676-9.2914-8.1676h-11.747v16.418zm-86.305 1.0021v-0.16888c0-16.249 12.057-29.561 28.641-29.561s28.49 13.151 28.49 29.4v0.1606c0 16.253-12.057 29.561-28.644 29.561-16.58 0-28.486-13.143-28.486-29.392m44.767 0v-0.16888c0-9.7988-6.7582-17.962-16.282-17.962-9.5162 0-16.123 8.003-16.123 17.802v0.1606c0 9.7988 6.7582 17.97 16.278 17.97 9.5237 0 16.127-8.003 16.127-17.802m-96.67 7.2e-4v-0.16888c0-16.249 11.518-29.561 28.028-29.561 10.132 0 16.201 3.5957 21.189 8.8226l-7.5216 9.2263c-4.1479-3.9995-8.3732-6.4503-13.749-6.4503-9.0588 0-15.585 8.003-15.585 17.802v0.1606c0 9.7988 6.3711 17.97 15.585 17.97 6.1428 0 9.9072-2.6154 14.129-6.6974l7.5288 8.0855c-5.5303 6.2854-11.673 10.203-22.041 10.203-15.813 0-27.564-12.983-27.564-29.392m350.11-111.81h14.56v56.322h33.006v14.085h-47.565zm-77.456 35.397v-0.20417c0-20.013 14.848-36.402 35.277-36.402 20.426 0 35.082 16.19 35.082 36.207v0.19589c0 20.021-14.844 36.412-35.274 36.412-20.426 0-35.086-16.194-35.086-36.207m55.137 0v-0.20417c0-12.061-8.3217-22.123-20.05-22.123-11.728 0-19.862 9.8539-19.862 21.927v0.19589c0 12.073 8.3217 22.131 20.054 22.131 11.725 0 19.858-9.8536 19.858-21.927m-90.967-21.139h-20.146v-14.281h54.853v14.281h-20.142v56.128h-14.564zm-40.69-14.26h14.567v70.409h-14.567zm-57.964 0h27.048c15.795 0 25.348 9.9594 25.348 24.338v0.20417c0 16.288-11.92 24.742-26.768 24.742h-11.065v21.123h-14.564zm26.104 35.505c7.2818 0 11.537-4.6229 11.537-10.662v-0.20021c0-6.9404-4.5422-10.662-11.824-10.662h-11.253v21.523zm-72.232-36.01h13.432l28.372 70.913h-15.224l-6.0542-15.794h-27.995l-6.0503 15.794h-14.848zm15.323 41.447-8.797-22.836-8.7934 22.836zm-106.78-5.5454v-0.20417c0-20.013 14.188-36.402 34.521-36.402 12.484 0 19.951 4.419 26.097 10.857l-9.2655 11.367c-5.1065-4.9289-10.309-7.944-16.931-7.944-11.161 0-19.195 9.8536-19.195 21.927v0.19589c0 12.073 7.846 22.131 19.195 22.131 7.5659 0 12.204-3.2231 17.403-8.2501l9.2691 9.9634c-6.8061 7.7441-14.38 12.567-27.144 12.567-19.482 0-33.95-15.99-33.95-36.207" fill="#fff"/>
  <path d="m273.94 100.86-0.00781 0.00391c-19.865 0.37823-36.317 4.7449-46.186 9.8672-15.974 8.2892-196.42 108.45-197.72 109.5v7.2734l175.5-85.529 4.8809 27.852-180.38 70.781v7.791c30.55-10.043 239.62-78.707 243.96-78.707 17.486 0 45.386 6.685 64.543 23.926 19.504 17.541 21.554 26.736 22.512 38.746 0.11307 1.4547-0.07031 3.3906-0.07031 3.3906-4.7269 0.14151-7.841 0.01727-9.7324-0.07812-0.5459 2.2113-1.6888 9.5256-5.7812 10.635-4.096 1.1092-28.993 0.27475-34.723 0-5.7334-0.27835-10.292-8.343-11.66-12.217l-10.367-0.20312s-9.9559-27.971-14.834-32.17c-5.0449-4.3463-212.29 48.97-243.84 57.121v20.686s236.45-19.901 255.74-20.635c20.848-0.7881 124.4 0.46534 145.36 2.4883 0.38652-8.4539 0.37092-16.278-0.94922-25.473-4.6531-32.412-18.606-53.781-32.428-74.637-1.0878-0.55285-6.4707-2.5234-6.4707-2.5234-1.364-2.7604-19.418-25.199-19.418-25.199l-1.8848-7.6602c-15.837-12.999-53.731-23.589-87.33-24.938-2.968-0.11811-5.8751-0.14584-8.7129-0.0918zm-16.434 22.252 39.305 0.12305 18.082 26.49c-18.336-0.1606-41.404 0-41.404 0l-17.24-23.531c-0.96631-1.5723-0.33854-3.082 1.2578-3.082zm47.133 0.31836 32.529 3.875 20.275 25.564s-25.142-2.741-33.957-3.0781l-18.848-26.361zm39.521 5.0078 21.531 5.3984c1.4784 0.3688 2.9613 1.331 3.7578 2.248 0.73933 1.0256 16.463 21.168 16.463 21.168s-14.461-2.897-21.068-3.293l-20.684-25.521zm-113.26 1.3203c0.92157 0.07849 1.774 0.56734 2.3848 1.4961l15.064 23.801-30.035 11.615-6.5547-27.785s15.657-7.8502 17.441-8.8301l0.00195-0.00195c0.56689-0.2424 1.1443-0.34202 1.6973-0.29492zm110.42 29.381c5.372 0.0628 18.545 1.2515 23.18 2 0 0 5.1675 7.5012 6.4141 9.2539-4.542-0.42398-19.499-1.2737-24.012-1.3691 0 0-4.4211-7.8851-5.582-9.8848zm66.053 21.031c0.00414 0.00661 11.714 18.742 16.85 40.377v0.00586c1.7838 7.5033 3.1627 15.884 2.9121 21.795-0.20705 4.7093-3.0446 7.1155-6.1602 7.0762-3.4659-0.0407-13.145-0.68353-16.648-1.1816-2.5146-0.35649-4.843-1.5544-6.3438-5.2324-0.60427-1.4821-1.2797-4.2178-1.4199-5.0215l-6.6465-0.89454c-0.27367-5.1248 0.16223-17.665 1.1543-25.754 1.1092-8.9479 5.5104-23.434 16.303-31.17zm-91.078 44.898c-4.0114 0-7.2656 3.4334-7.2656 7.6524 0 4.227 3.2542 7.6504 7.2656 7.6504 4.0226 0 7.2715-3.4236 7.2715-7.6504 0-4.2191-3.2489-7.6524-7.2715-7.6524zm21.471 0.07032c-4.019 0-7.2793 3.4255-7.2793 7.6523 0 4.2231 3.2603 7.6582 7.2793 7.6582 4.0116 0 7.2734-3.435 7.2734-7.6582 0-4.227-3.262-7.6523-7.2734-7.6523zm67.412 3.9863c-3.0196 0.17249-5.311 3.5358-5.1191 7.5195 0.19157 3.9839 2.799 7.0713 5.8223 6.8984 3.0159-0.17248 5.313-3.5417 5.1211-7.5254-0.19193-3.98-2.8044-7.0654-5.8242-6.8926zm13.771 0.93555c-2.8391 0.10587-5.0521 3.4301-4.916 7.4141 0.12928 3.9797 2.5441 7.1263 5.3867 7.0176 2.8462-0.10586 5.0384-3.4245 4.916-7.4043-0.13251-3.9837-2.5365-7.1227-5.3867-7.0273zm-69.635 38.324c-30.305 0.018-57.678 0.35098-62.742 0.51367-18.88 0.61172-256.56 13.678-256.56 13.678v26.613s155.09 24.916 157.81 25.277c1.597 0.24306 2.7338-0.7279 2.5527-2.4336-0.16972-3.588 0.9588-7.3747 2.9609-11.049 2.5257 12.226 10.248 20.907 18.455 19.994 6.6844-0.749 11.812-7.6698 13.766-16.963 3.0601 13.727 11.743 23.416 21.119 22.541 7.7355-0.7173 13.814-8.4429 16.387-19.01 2.8318 4.6819 5.5827 9.4169 7.9902 13.848 1.368 2.9605 2.9576 4.9032 5.9219 5.3809 1.4897 0.21174 16.415 2.2122 21.205 2.875-1.1656-7.9717-1.4766-19.248-1.4766-19.248s2.1194 15.658 7.6094 26.127c0.4607 0.0681 0.95794 0.12408 1.4629 0.11328 8.5846-0.2391 95.822-6.4313 121.36-9.1016 1.4821-0.30572 2.2225-1.2714 1.8496-2.8398-3.1598-16.154-1.3417-39.991 5.9844-57.166 0.45713-1.2671-0.36408-2.2441-1.3848-2.2441l-8.6719-0.0625c1.0248-3.3211 4.4881-11.609 4.7344-15.48-16.789-1.0901-50.027-1.3815-80.332-1.3633zm-10.184 8.1934h21.17c0.54986 0 0.97168 0.68194 0.93359 1.5332l-0.16797 3.6914c-0.0407 0.84654-0.51584 1.5332-1.0684 1.5332h-21.176c-0.55256 0-0.97048-0.68597-0.92969-1.5332l0.16211-3.6914c0.0407-0.85061 0.52362-1.5332 1.0762-1.5332zm51.172 0.32226h19.023c0.54982 0 0.95304 0.6921 0.89453 1.5274l-0.22656 3.0801c-0.0681 0.8465-0.55098 1.5273-1.1035 1.5273h-19.023c-0.55256 0-0.95245-0.67985-0.89257-1.5273l0.21679-3.0801c0.068-0.83563 0.5547-1.5274 1.1113-1.5274z" fill="#142a5e"/>
 </g>
</svg>
