<?xml version="1.0" standalone="no"?>
<!DOCTYPE svg PUBLIC "-//W3C//DTD SVG 20010904//EN"
 "http://www.w3.org/TR/2001/REC-SVG-20010904/DTD/svg10.dtd">
<svg version="1.0" xmlns="http://www.w3.org/2000/svg"
 width="260.000000pt" height="260.000000pt" viewBox="0 0 260.000000 260.000000"
 preserveAspectRatio="xMidYMid meet">
<metadata>
Created by potrace 1.11, written by Peter Selinger 2001-2013
</metadata>
<g transform="translate(0.000000,260.000000) scale(0.100000,-0.100000)"
fill="#000000" stroke="none">
<path d="M2089 2343 c-10 -2 -19 -19 -23 -42 -3 -23 -18 -52 -35 -70 -16 -18
-31 -39 -33 -49 -2 -11 -18 -19 -47 -24 -24 -4 -50 -13 -58 -19 -20 -17 -451
-44 -523 -33 -46 8 -56 13 -58 32 -2 12 -7 22 -11 22 -19 0 -61 51 -61 75 0
14 -4 25 -10 25 -5 0 -10 9 -10 20 0 11 -7 20 -15 20 -17 0 -20 -7 -30 -62 -3
-22 -18 -50 -36 -68 -28 -27 -30 -34 -21 -58 16 -40 23 -913 8 -938 -7 -13
-13 -188 -17 -559 -4 -297 -10 -557 -14 -577 l-7 -38 65 0 c58 0 65 2 71 23
l7 22 9 -22 9 -23 521 0 520 0 0 53 c0 31 -6 61 -15 73 -16 21 -20 86 -6 112
5 10 5 205 0 467 -7 348 -12 458 -23 485 -11 27 -17 141 -26 476 -6 243 -8
462 -5 487 7 45 6 47 -29 68 -27 16 -39 31 -47 62 -6 23 -13 48 -15 55 -3 12
-7 13 -35 5z m-190 -560 c33 -23 40 -34 41 -61 0 -19 6 -35 15 -38 8 -4 15
-15 15 -25 0 -10 6 -19 14 -19 20 0 29 -274 14 -430 -3 -33 -6 -35 -78 -62
-68 -26 -94 -29 -290 -38 -197 -10 -220 -9 -270 7 l-55 18 -3 215 c-2 208 -1
223 29 282 5 10 9 30 9 44 0 25 48 78 99 109 9 5 84 12 166 15 271 12 251 13
294 -17z m251 -507 c0 -3 -4 -8 -10 -11 -5 -3 -10 -1 -10 4 0 6 5 11 10 11 6
0 10 -2 10 -4z m-270 -541 c0 -8 11 -22 25 -31 14 -9 25 -23 25 -30 0 -8 9
-23 20 -34 13 -13 20 -33 20 -60 0 -29 4 -40 15 -40 24 0 27 -38 22 -237 -6
-239 -11 -252 -105 -253 -18 0 -41 -4 -50 -9 -21 -11 -368 -16 -444 -6 l-58 7
0 83 c0 61 -4 86 -15 95 -12 10 -15 43 -15 176 0 98 4 165 10 169 6 3 10 17
10 31 0 14 7 27 15 30 8 4 15 12 15 18 0 7 17 31 38 54 43 47 38 46 330 50
119 2 142 0 142 -13z"/>
</g>
</svg>
