<?xml version="1.0" standalone="no"?>
<!DOCTYPE svg PUBLIC "-//W3C//DTD SVG 20010904//EN"
 "http://www.w3.org/TR/2001/REC-SVG-20010904/DTD/svg10.dtd">
<svg version="1.0" xmlns="http://www.w3.org/2000/svg"
 width="700.000000pt" height="700.000000pt" viewBox="0 0 700.000000 700.000000"
 preserveAspectRatio="xMidYMid meet">
<metadata>
Created by potrace 1.14, written by Peter Selinger 2001-2017
</metadata>
<g transform="translate(0.000000,700.000000) scale(0.100000,-0.100000)"
fill="#000000" stroke="none">
<path d="M3050 4780 l0 -90 160 0 160 0 0 -435 0 -435 110 0 110 0 0 435 0
435 150 0 150 0 0 90 0 90 -420 0 -420 0 0 -90z"/>
<path d="M670 4599 c-153 -22 -241 -113 -241 -249 -1 -78 24 -127 79 -158 23
-13 99 -41 169 -63 193 -59 212 -67 219 -94 3 -13 3 -32 0 -43 -15 -46 -156
-68 -235 -36 -30 12 -44 25 -53 50 l-12 34 -98 0 c-93 0 -98 -1 -98 -21 0 -39
22 -97 50 -131 79 -95 307 -135 476 -84 198 61 246 328 75 416 -21 10 -102 37
-182 60 -158 46 -189 60 -189 91 0 55 63 87 149 74 60 -9 87 -27 102 -70 l13
-36 91 3 90 3 3 28 c5 45 -43 133 -91 166 -79 54 -202 77 -317 60z"/>
<path d="M1440 4597 c-115 -27 -178 -80 -206 -173 -25 -85 -27 -84 80 -84 l94
0 12 35 c17 52 43 65 126 65 82 0 124 -22 124 -66 0 -61 -22 -74 -189 -104
-63 -12 -134 -31 -158 -42 -87 -41 -130 -127 -120 -238 7 -84 41 -138 109
-176 46 -25 63 -29 128 -29 80 0 131 20 194 72 l30 25 15 -34 16 -33 104 -3
c57 -1 108 1 113 6 6 6 -1 25 -16 47 l-26 38 0 251 c0 146 -5 267 -11 289 -16
57 -71 113 -137 137 -71 27 -206 35 -282 17z m228 -487 c-4 -77 -21 -109 -79
-148 -27 -19 -43 -23 -81 -19 -63 5 -95 28 -104 73 -15 81 18 109 166 142 47
11 89 20 94 21 4 0 6 -30 4 -69z"/>
<path d="M2410 4601 c-47 -10 -90 -33 -119 -65 -33 -35 -41 -33 -41 13 0 38 0
39 -45 46 -25 3 -70 3 -100 0 l-55 -7 0 -384 0 -384 100 0 100 0 0 245 c0 272
6 307 63 347 58 41 155 21 177 -38 6 -14 10 -144 10 -289 0 -230 2 -264 16
-269 20 -8 113 -8 152 0 l31 6 3 257 c3 222 5 260 21 288 22 42 64 63 122 63
38 0 52 -5 76 -29 l29 -29 0 -276 0 -276 100 0 100 0 0 308 c0 277 -2 311 -19
347 -39 85 -115 128 -226 128 -84 0 -135 -19 -187 -71 l-38 -36 -37 36 c-60
59 -153 86 -233 69z"/>
<path d="M4527 4600 c-132 -24 -227 -122 -227 -234 l0 -26 94 0 94 0 7 30 c11
51 47 70 132 70 65 0 77 -3 98 -25 31 -30 32 -56 3 -90 -20 -21 -45 -30 -164
-54 -151 -31 -184 -44 -226 -88 -41 -42 -58 -94 -58 -170 1 -115 46 -181 149
-218 84 -29 187 -10 266 50 25 19 47 35 49 35 2 0 7 -12 11 -27 3 -15 12 -31
18 -35 7 -4 56 -8 110 -8 110 0 125 9 88 56 -20 25 -21 38 -21 270 0 134 -5
265 -11 292 -14 69 -64 125 -135 152 -64 23 -203 34 -277 20z m223 -473 c0
-61 -31 -130 -71 -160 -57 -41 -161 -29 -189 22 -13 25 -13 77 0 101 15 28 44
41 145 66 123 30 115 32 115 -29z"/>
<path d="M5499 4599 c-58 -9 -80 -20 -135 -71 l-44 -41 0 52 0 51 -100 0 -100
0 0 -385 0 -385 99 0 100 0 3 253 c3 232 5 255 23 287 26 44 76 70 137 70 61
0 95 -16 116 -54 14 -26 17 -73 20 -293 l4 -263 99 0 99 0 0 275 c0 160 -5
295 -11 325 -13 62 -60 126 -112 153 -45 23 -135 35 -198 26z"/>
<path d="M6225 4599 c-156 -19 -249 -112 -248 -249 0 -75 18 -118 62 -149 16
-12 107 -46 203 -77 95 -31 181 -63 191 -72 25 -22 18 -61 -16 -86 -39 -28
-142 -34 -203 -11 -35 13 -49 25 -60 51 l-14 34 -95 0 -95 0 0 -33 c0 -81 83
-172 183 -202 76 -23 204 -30 278 -16 158 32 240 119 241 257 1 65 -15 105
-54 140 -37 34 -74 50 -228 94 -170 49 -190 59 -190 100 0 38 31 59 96 66 75
8 125 -13 149 -64 l20 -41 93 -1 92 0 0 33 c-1 47 -31 107 -77 148 -73 66
-194 94 -328 78z"/>
<path d="M4105 4586 c-37 -16 -89 -67 -113 -110 l-17 -31 -3 73 -3 72 -99 0
-100 0 0 -385 0 -385 99 0 99 0 4 238 c3 226 4 239 26 273 29 48 75 69 151 69
l61 0 0 100 0 100 -37 0 c-21 -1 -52 -7 -68 -14z"/>
<path d="M290 3373 l0 -358 3210 0 3210 0 0 358 0 357 -3210 0 -3210 0 0 -357z"/>
<path d="M297 2843 c-4 -3 -7 -291 -7 -640 l0 -633 3210 0 3210 0 -2 638 -3
637 -3201 3 c-1760 1 -3204 -1 -3207 -5z"/>
</g>
</svg>
