<?xml version="1.0" encoding="UTF-8" standalone="no"?>
<!-- Created with Inkscape (http://www.inkscape.org/) -->

<svg
   xmlns:dc="http://purl.org/dc/elements/1.1/"
   xmlns:cc="http://creativecommons.org/ns#"
   xmlns:rdf="http://www.w3.org/1999/02/22-rdf-syntax-ns#"
   xmlns:svg="http://www.w3.org/2000/svg"
   xmlns="http://www.w3.org/2000/svg"
   xmlns:sodipodi="http://sodipodi.sourceforge.net/DTD/sodipodi-0.dtd"
   xmlns:inkscape="http://www.inkscape.org/namespaces/inkscape"
   width="263.55551mm"
   height="27.917379mm"
   viewBox="0 0 263.55551 27.917379"
   version="1.1"
   id="svg6225"
   inkscape:version="0.92.0 r15299"
   sodipodi:docname="san francisco bay ferry.svg">
  <defs
     id="defs6219">
    <linearGradient
       gradientTransform="matrix(0.26458333,-0.00254,0.00254,0.26458333,-141.35868,82.305348)"
       y2="336.8428"
       x2="344.50729"
       y1="336.8428"
       x1="220.2803"
       gradientUnits="userSpaceOnUse"
       id="SVGID_1_">
      <stop
         id="stop20"
         style="stop-color:#1D75BC"
         offset="0.1718" />
      <stop
         id="stop22"
         style="stop-color:#27A9E1"
         offset="0.7975" />
    </linearGradient>
    <linearGradient
       y2="364.95609"
       x2="372.22711"
       y1="364.95609"
       x1="188.67039"
       gradientUnits="userSpaceOnUse"
       id="SVGID_2_"
       gradientTransform="matrix(0.26458333,0,0,0.26458333,-140.63122,80.571747)">
      <stop
         id="stop31"
         style="stop-color:#2B3990"
         offset="0.092" />
      <stop
         id="stop33"
         style="stop-color:#1D75BC"
         offset="0.6871" />
    </linearGradient>
  </defs>
  <sodipodi:namedview
     id="base"
     pagecolor="#ffffff"
     bordercolor="#666666"
     borderopacity="1.0"
     inkscape:pageopacity="0.0"
     inkscape:pageshadow="2"
     inkscape:zoom="0.90738391"
     inkscape:cx="494.27811"
     inkscape:cy="48.977732"
     inkscape:document-units="mm"
     inkscape:current-layer="layer1"
     showgrid="false"
     fit-margin-top="0"
     fit-margin-left="0"
     fit-margin-right="0"
     fit-margin-bottom="0"
     inkscape:window-width="1280"
     inkscape:window-height="744"
     inkscape:window-x="-4"
     inkscape:window-y="-4"
     inkscape:window-maximized="1" />
  <metadata
     id="metadata6222">
    <rdf:RDF>
      <cc:Work
         rdf:about="">
        <dc:format>image/svg+xml</dc:format>
        <dc:type
           rdf:resource="http://purl.org/dc/dcmitype/StillImage" />
        <dc:title></dc:title>
      </cc:Work>
    </rdf:RDF>
  </metadata>
  <g
     inkscape:label="Layer 1"
     inkscape:groupmode="layer"
     id="layer1"
     transform="translate(90.712275,-158.82107)">
    <g
       id="g6312"
       transform="translate(1.000007,-1.0000005)">
      <path
         d="m -49.352084,170.55732 c 0,0 -15.536861,-1.1848 -32.816531,5.70469 0,0 9.90706,-11.91075 26.486911,-10.9691 3.517369,0.19976 6.32962,5.26441 6.32962,5.26441 z"
         id="path24"
         style="fill:url(#SVGID_1_);stroke-width:0.26458332"
         inkscape:connector-curvature="0" />
      <path
         style="fill:#50a947;stroke-width:0.26458332"
         inkscape:connector-curvature="0"
         id="path28"
         d="m -60.320125,164.05836 c -3.93408,-7.5184 -10.75557,-0.21537 -14.2994,4.51459 3.69094,-2.12619 8.50159,-4.0386 14.2994,-4.51459 z" />
      <path
         d="m -90.712275,182.56385 h 35.29012 c 0,0 10.24043,0.79454 13.276,-10.80955 0,0 -32.76918,-1.56501 -48.56612,10.80955 z"
         id="path35"
         style="fill:url(#SVGID_2_);stroke-width:0.26458332"
         inkscape:connector-curvature="0" />
      <path
         style="fill:#878785;stroke-width:0.26458332"
         inkscape:connector-curvature="0"
         id="path39"
         d="m -26.169026,168.94919 -0.252939,1.4388 c -0.0389,0.19473 -0.194468,0.35137 -0.38894,0.35137 -0.01929,0 -0.01929,0 -0.0389,0 -1.264981,-0.11801 -2.37464,-0.19553 -3.81477,-0.19553 -1.070499,0 -2.296851,0.33179 -2.296851,1.63565 0,0.50562 0.33047,0.87525 1.304139,1.47903 l 2.102382,1.30439 c 1.57612,0.9734 2.06348,2.21906 2.06348,3.32872 0,3.40651 -2.687111,4.70906 -5.87983,4.70906 -1.458121,0 -2.491592,-0.136 -3.385611,-0.34978 -0.15558,-0.0386 -0.31115,-0.15558 -0.31115,-0.33047 0,-0.0196 0,-0.0389 0,-0.0585 l 0.252669,-1.40123 c 0.0389,-0.19421 0.214051,-0.37068 0.427842,-0.37068 0.01929,0 0.01929,0 0.0386,0 0.779201,0.0971 2.70537,0.19579 3.42609,0.19579 1.362339,0 2.569109,-0.46831 2.569109,-2.02459 0,-0.50694 -0.31115,-0.95409 -1.323448,-1.6346 l -2.297113,-1.53882 c -1.323178,-0.87471 -1.713709,-2.19842 -1.713709,-3.15224 0,-3.26893 2.784211,-4.1066 5.547792,-4.1066 1.284549,0 3.037149,0.19447 3.678758,0.35004 0.155581,0.0389 0.291841,0.15558 0.291841,0.31248 5.29e-4,0.0188 5.29e-4,0.0381 5.29e-4,0.0577 z" />
      <path
         style="fill:#878785;stroke-width:0.26458332"
         inkscape:connector-curvature="0"
         id="path41"
         d="m -15.734123,172.76263 -1.692802,9.69301 c -0.0389,0.21404 -0.25268,0.38893 -0.468048,0.38893 h -1.555221 c -0.215111,0 -0.312481,-0.13599 -0.312481,-0.33046 0,-0.0193 0,-0.0386 0,-0.0585 l 0.0778,-0.56383 c -1.090081,0.83582 -2.06216,1.10807 -3.01784,1.10807 -1.788581,0 -3.19114,-1.20544 -3.19114,-3.52186 0,-0.34978 0.01929,-0.77894 0.0971,-1.16787 0,0 0.15557,-0.97367 0.29183,-1.69281 0.545571,-3.03715 2.39422,-4.88553 5.528469,-4.88553 1.245661,0 2.666471,0.19447 3.81476,0.50535 0.29157,0.0778 0.447151,0.13626 0.447151,0.36936 -2.65e-4,0.059 -2.65e-4,0.0979 -0.01961,0.15611 z m -4.61354,1.07235 c -1.671902,0 -2.315102,1.1856 -2.588421,2.78289 l -0.350042,2.00395 c -0.0582,0.29316 -0.0775,0.56542 -0.0775,0.79878 0,1.10808 0.583401,1.47876 1.34434,1.47876 0.73872,0 1.555491,-0.31248 2.431521,-0.81783 l 1.070769,-6.11055 c -0.350308,-0.078 -1.129239,-0.136 -1.83065,-0.136 z" />
      <path
         style="fill:#878785;stroke-width:0.26458332"
         inkscape:connector-curvature="0"
         id="path43"
         d="m -4.9883331,176.09135 -1.10834,6.34497 c -0.0386,0.21405 -0.252682,0.40825 -0.46646,0.40825 h -1.791502 c -0.194458,0 -0.330729,-0.13599 -0.330729,-0.33046 0,-0.0193 0.0196,-0.0585 0.0196,-0.0778 l 1.108081,-6.34497 c 0.0778,-0.48736 0.13626,-0.85672 0.13626,-1.16787 0,-0.7583 -0.330732,-1.01124 -1.39991,-1.01124 -0.66225,0 -1.4221409,0.27226 -2.3164299,0.70009 l -1.38298,7.82399 c -0.0389,0.21405 -0.252672,0.40825 -0.46646,0.40825 h -1.790171 c -0.195789,0 -0.33178,-0.13599 -0.33178,-0.33046 0,-0.0193 0.01961,-0.0585 0.01961,-0.0778 l 1.791489,-10.17931 c 0.0389,-0.21379 0.233359,-0.38894 0.44714,-0.38894 h 1.69413 c 0.194471,0 0.33047,0.15558 0.33047,0.33046 0,0.0196 0,0.0196 0,0.0389 v 0.0196 l -0.0775,0.40825 c 1.2456609,-0.7194 2.0830689,-0.93319 3.2300379,-0.93319 2.121951,0 2.823102,1.26365 2.823102,2.91915 -2.6e-4,0.44715 -0.0389,0.93345 -0.137581,1.44013 z" />
      <path
         style="fill:#878785;stroke-width:0.26458332"
         inkscape:connector-curvature="0"
         id="path45"
         d="m 10.080475,168.91029 -0.2140501,1.24434 c -0.0386,0.21378 -0.254,0.38894 -0.46804,0.38894 h -3.96875 c -1.1303,0 -1.59703,0.39026 -1.83039,1.67481 l -0.369358,2.10238 h 5.274199 c 0.194471,0 0.330729,0.13626 0.330729,0.33073 0,0.0196 0,0.0389 0,0.0582 l -0.252939,1.40123 c -0.0389,0.21537 -0.25268,0.39026 -0.46672,0.39026 h -5.275529 l -1.031881,5.95471 c -0.0389,0.21405 -0.252669,0.38894 -0.46646,0.38894 h -1.90816997 c -0.194471,0 -0.31115,-0.136 -0.31115,-0.31089 0,-0.0389 0,-0.0585 0,-0.078 l 1.791491,-10.23752 C 1.4968659,168.9106 3.2105749,168.2285 6.1101359,168.2285 c 2.31643,0 3.055149,0.17516 3.659459,0.27199 0.2333601,0.0389 0.3304601,0.0974 0.3304601,0.27252 -2.6e-4,0.0386 -0.0196,0.0788 -0.0196,0.13732 z" />
      <path
         style="fill:#878785;stroke-width:0.26458332"
         inkscape:connector-curvature="0"
         id="path47"
         d="m 17.596235,172.12101 -0.25295,1.40097 c -0.0389,0.21405 -0.23468,0.39026 -0.44846,0.39026 -0.6223,0 -1.47744,0.0386 -2.80247,0.70009 l -1.38166,7.82399 c -0.0389,0.21405 -0.25294,0.40825 -0.46672,0.40825 h -1.78991 c -0.19579,0 -0.31247,-0.15557 -0.31247,-0.33046 0,-0.0386 0,-0.0585 0,-0.0778 l 1.78991,-10.17931 c 0.0389,-0.21379 0.23336,-0.38894 0.44873,-0.38894 h 1.69254 c 0.19473,0 0.33046,0.13626 0.33046,0.33046 0,0.0196 0,0.0389 0,0.0585 l -0.0775,0.40825 c 1.11072,-0.85566 2.14127,-0.93319 2.95937,-0.93319 0.19473,0 0.31115,0.136 0.31115,0.31115 0,0.0389 0,0.0582 0,0.0778 z" />
      <path
         style="fill:#878785;stroke-width:0.26458332"
         inkscape:connector-curvature="0"
         id="path49"
         d="m 27.562825,172.76263 -1.69413,9.69301 c -0.0389,0.21404 -0.25294,0.38893 -0.46673,0.38893 h -1.55839 c -0.21352,0 -0.31089,-0.13599 -0.31089,-0.33046 0,-0.0193 0,-0.0386 0,-0.0585 l 0.0778,-0.56383 c -1.08876,0.83582 -2.06349,1.10807 -3.01625,1.10807 -1.79149,0 -3.19246,-1.20544 -3.19246,-3.52186 0,-0.34978 0.0193,-0.77894 0.0974,-1.16787 0,0 0.15664,-0.97367 0.2929,-1.69281 0.54425,-3.03715 2.39395,-4.88553 5.52714,-4.88553 1.2454,0 2.66621,0.19447 3.8145,0.50535 0.29184,0.0778 0.44873,0.13626 0.44873,0.36936 0,0.059 0,0.0979 -0.0196,0.15611 z m -4.61301,1.07235 c -1.67508,0 -2.31643,1.1856 -2.58869,2.78289 l -0.35004,2.00395 c -0.0598,0.29316 -0.0791,0.56542 -0.0791,0.79878 0,1.10808 0.58473,1.47876 1.34276,1.47876 0.7403,0 1.55839,-0.31248 2.43337,-0.81783 l 1.0705,-6.11055 c -0.34977,-0.078 -1.12897,-0.136 -1.82879,-0.136 z" />
      <path
         style="fill:#878785;stroke-width:0.26458332"
         inkscape:connector-curvature="0"
         id="path51"
         d="m 38.308875,176.09135 -1.10967,6.34497 c -0.0389,0.21405 -0.25426,0.40825 -0.46804,0.40825 h -1.79017 c -0.19447,0 -0.33179,-0.13599 -0.33179,-0.33046 0,-0.0193 0.0196,-0.0585 0.0196,-0.0778 l 1.11072,-6.34497 c 0.0775,-0.48736 0.13599,-0.85672 0.13599,-1.16787 0,-0.7583 -0.33046,-1.01124 -1.40255,-1.01124 -0.66093,0 -1.41896,0.27226 -2.31511,0.70009 l -1.38139,7.82399 c -0.0389,0.21405 -0.25267,0.40825 -0.46672,0.40825 h -1.79149 c -0.19394,0 -0.33047,-0.13599 -0.33047,-0.33046 0,-0.0193 0.0193,-0.0585 0.0193,-0.0778 l 1.79017,-10.17931 c 0.0389,-0.21379 0.23362,-0.38894 0.44873,-0.38894 h 1.69148 c 0.19579,0 0.33205,0.15558 0.33205,0.33046 0,0.0196 0,0.0196 0,0.0389 v 0.0196 l -0.0778,0.40825 c 1.24539,-0.7194 2.08147,-0.93319 3.23161,-0.93319 2.12038,0 2.82179,1.26365 2.82179,2.91915 -2.7e-4,0.44715 -0.0392,0.93345 -0.13626,1.44013 z" />
      <path
         style="fill:#878785;stroke-width:0.26458332"
         inkscape:connector-curvature="0"
         id="path53"
         d="m 48.549045,172.49037 -0.23469,1.26524 c -0.0386,0.19552 -0.21405,0.29289 -0.38867,0.29289 -0.0196,0 -0.0196,0 -0.0389,0 h -0.0193 c -0.62336,-0.0778 -1.22634,-0.13599 -2.49132,-0.13599 -0.91519,0 -1.94574,0.52493 -2.31669,2.54979 l -0.33046,1.80948 c -0.0775,0.36936 -0.0968,0.70115 -0.0968,0.97367 0,1.32159 0.72072,1.57586 1.51738,1.57586 1.26524,0 1.84971,-0.0582 2.54979,-0.136 h 0.0193 c 0.0196,0 0.0196,0 0.0389,0 0.15584,0 0.29184,0.0778 0.29184,0.2331 0,0.0196 0,0.0196 0,0.0389 v 0.0193 l -0.23336,1.26523 c -0.0585,0.31115 -0.13627,0.42757 -0.48604,0.50536 -0.46673,0.11668 -1.36208,0.25267 -2.54979,0.25267 -2.21906,0 -3.71766,-1.51606 -3.71766,-3.73538 0,-0.31115 0.0389,-0.6432 0.0971,-0.99298 l 0.33046,-1.80949 c 0.68183,-3.67982 2.74585,-4.72996 5.27579,-4.72996 1.18587,0 2.02301,0.136 2.4511,0.25295 0.25427,0.0585 0.35137,0.13599 0.35137,0.33046 2.6e-4,0.0389 2.6e-4,0.11642 -0.0193,0.17489 z" />
      <path
         style="fill:#878785;stroke-width:0.26458332"
         inkscape:connector-curvature="0"
         id="path55"
         d="m 53.260745,172.25701 -1.78965,10.17931 c -0.0389,0.21405 -0.254,0.40825 -0.46804,0.40825 h -1.79044 c -0.19394,0 -0.31088,-0.15557 -0.31088,-0.33046 0,-0.0386 0,-0.0585 0,-0.0778 l 1.7899,-10.17931 c 0.0389,-0.21379 0.23336,-0.38894 0.44715,-0.38894 h 1.79149 c 0.19421,0 0.3302,0.13626 0.3302,0.33046 2.7e-4,0.0196 2.7e-4,0.0392 2.7e-4,0.0585 z m 0.75988,-3.95076 -0.31274,1.71212 c -0.0386,0.21405 -0.2331,0.38894 -0.44714,0.38894 h -1.88728 c -0.19552,0 -0.35136,-0.136 -0.35136,-0.33047 0,-0.0196 0,-0.0389 0,-0.0585 l 0.31273,-1.71212 c 0.0386,-0.21537 0.25295,-0.39026 0.46673,-0.39026 h 1.88727 c 0.19579,0 0.33205,0.13626 0.33205,0.33179 -2.6e-4,0.0196 -2.6e-4,0.0389 -2.6e-4,0.0585 z" />
      <path
         style="fill:#878785;stroke-width:0.26458332"
         inkscape:connector-curvature="0"
         id="path57"
         d="m 62.818015,172.58747 -0.1942,1.10966 c -0.0389,0.23469 -0.17489,0.37069 -0.36936,0.37069 -0.0193,0 -0.0389,0 -0.0585,0 h -0.019 c -0.52652,-0.0778 -1.96691,-0.2331 -3.07631,-0.2331 -0.60246,0 -1.49834,0.0775 -1.49834,0.89403 0,0.27225 0.19447,0.52519 0.58341,0.79718 l 2.27727,1.55814 c 1.1676,0.79719 1.43986,1.5957 1.43986,2.45242 0,2.43284 -1.98437,3.46339 -4.3008,3.46339 -0.6432,0 -2.31643,-0.0582 -3.50361,-0.38867 -0.19421,-0.0585 -0.29157,-0.17515 -0.29157,-0.35004 0,-0.0193 0,-0.0386 0,-0.0582 0,-0.0196 0,-0.0196 0,-0.0389 l 0.21378,-1.16788 c 0.0386,-0.19446 0.21378,-0.31115 0.40825,-0.31115 0.0193,0 0.0389,0 0.0585,0 0.91493,0.11642 2.52995,0.21379 3.11468,0.21379 0.95382,0 1.67349,-0.17463 1.67349,-1.09009 0,-0.31114 -0.17516,-0.60245 -0.64162,-0.93292 l -2.3749,-1.63618 c -0.7403,-0.50535 -1.26523,-1.38192 -1.26523,-2.31616 0,-2.56911 2.23864,-3.19141 4.10659,-3.19141 1.16788,0 2.3749,0.136 3.44541,0.40799 0.1942,0.0585 0.27199,0.17516 0.27199,0.35005 0,0.0196 0,0.0386 0,0.0582 2.6e-4,0.0199 2.6e-4,0.0199 2.6e-4,0.0392 z" />
      <path
         style="fill:#878785;stroke-width:0.26458332"
         inkscape:connector-curvature="0"
         id="path59"
         d="m 72.396205,172.49037 -0.23337,1.26524 c -0.0389,0.19552 -0.21378,0.29289 -0.38893,0.29289 -0.0196,0 -0.0196,0 -0.0389,0 h -0.0193 c -0.62335,-0.0778 -1.22608,-0.13599 -2.49132,-0.13599 -0.91492,0 -1.94679,0.52493 -2.31642,2.54979 l -0.33178,1.80948 c -0.0778,0.36936 -0.0971,0.70115 -0.0971,0.97367 0,1.32159 0.72072,1.57586 1.51897,1.57586 1.26497,0 1.84839,-0.0582 2.54979,-0.136 h 0.0193 c 0.0196,0 0.0196,0 0.0389,0 0.15557,0 0.29183,0.0778 0.29183,0.2331 0,0.0196 0,0.0196 0,0.0389 v 0.0193 l -0.23363,1.26523 c -0.0582,0.31115 -0.13573,0.42757 -0.48709,0.50536 -0.46673,0.11668 -1.36234,0.25267 -2.54979,0.25267 -2.21774,0 -3.71766,-1.51606 -3.71766,-3.73538 0,-0.31115 0.0386,-0.6432 0.0971,-0.99298 l 0.33205,-1.80949 c 0.68024,-3.67982 2.74373,-4.72996 5.2742,-4.72996 1.18745,0 2.0246,0.136 2.45269,0.25295 0.25268,0.0585 0.34978,0.13599 0.34978,0.33046 0,0.0389 0,0.11642 -0.0193,0.17489 z" />
      <path
         style="fill:#878785;stroke-width:0.26458332"
         inkscape:connector-curvature="0"
         id="path61"
         d="m 82.400365,176.57871 -0.29184,1.57507 c -0.60404,3.21363 -2.43284,4.84637 -5.48957,4.84637 -2.6469,0 -3.89229,-1.86769 -3.89229,-3.91054 0,-0.31248 0.0193,-0.62336 0.0775,-0.93583 l 0.2929,-1.57507 c 0.58314,-3.19246 2.45268,-4.84637 5.50756,-4.84637 2.66621,0 3.89255,1.78991 3.89255,3.83275 2.7e-4,0.33179 -0.0384,0.68157 -0.0968,1.01362 z m -4.18412,-2.62758 c -1.18719,0 -2.19975,0.70009 -2.54979,2.62758 l -0.2929,1.57507 c -0.0585,0.31247 -0.0775,0.60378 -0.0775,0.85804 0,1.14723 0.56515,1.77086 1.71371,1.77086 1.36207,0 2.19948,-0.81836 2.52994,-2.62917 l 0.29157,-1.57506 c 0.0587,-0.31248 0.0781,-0.60405 0.0781,-0.85672 -2.6e-4,-1.14803 -0.54477,-1.7706 -1.69306,-1.7706 z" />
      <path
         style="fill:#878785;stroke-width:0.26458332"
         inkscape:connector-curvature="0"
         id="path63"
         d="m 98.578835,172.17922 -0.0775,0.38894 c -0.33205,1.6166 -1.18745,2.49158 -2.31669,2.93846 0.97367,0.44873 1.42055,1.44145 1.42055,2.41379 0,0.17489 0,0.37069 -0.0386,0.54557 l -0.0582,0.33047 c -0.54451,3.05673 -2.608,4.2037 -6.65612,4.2037 -1.57771,0 -2.74558,-0.0971 -3.32873,-0.21405 -0.52493,-0.0971 -0.79877,-0.27199 -0.79877,-0.73872 0,-0.0971 0.0196,-0.1942 0.0389,-0.31115 l 2.16085,-12.26211 c 0.11668,-0.70115 0.42757,-0.95435 1.07077,-1.05145 0.52493,-0.0775 1.75101,-0.19447 3.27025,-0.19447 3.36629,0 5.39089,1.09008 5.39089,3.19246 2.6e-4,0.23389 -0.0196,0.48657 -0.0775,0.75856 z m -5.70362,4.2635 h -2.47174 l -0.75829,4.28175 c 0.46699,0 1.18745,0.0386 1.5957,0.0386 2.49132,0 3.40624,-0.64321 3.62056,-2.00554 l 0.0386,-0.25242 c 0.0193,-0.15584 0.0386,-0.31115 0.0386,-0.44873 2.6e-4,-0.89456 -0.4871,-1.61369 -2.06349,-1.61369 z m 0,-5.97694 c -0.46646,0 -1.01203,0.0193 -1.42055,0.0389 l -0.69982,3.95235 h 2.47174 c 1.80948,0 2.51063,-0.85672 2.64715,-1.8497 l 0.0386,-0.272 c 0.0196,-0.13626 0.0389,-0.27225 0.0389,-0.38893 2.6e-4,-1.07104 -0.83715,-1.48061 -3.07605,-1.48061 z" />
      <path
         style="fill:#878785;stroke-width:0.26458332"
         inkscape:connector-curvature="0"
         id="path65"
         d="m 109.38309,172.76263 -1.6928,9.69301 c -0.0386,0.21404 -0.25268,0.38893 -0.46673,0.38893 h -1.55813 c -0.21404,0 -0.31115,-0.13599 -0.31115,-0.33046 0,-0.0193 0,-0.0386 0,-0.0585 l 0.0778,-0.56383 c -1.09008,0.83582 -2.06216,1.10807 -3.01598,1.10807 -1.7915,0 -3.192725,-1.20544 -3.192725,-3.52186 0,-0.34978 0.0193,-0.77894 0.0971,-1.16787 0,0 0.15584,-0.97367 0.29184,-1.69281 0.545565,-3.03715 2.394205,-4.88553 5.528455,-4.88553 1.24593,0 2.66648,0.19447 3.81503,0.50535 0.29157,0.0778 0.44715,0.13626 0.44715,0.36936 -2.6e-4,0.059 -2.6e-4,0.0979 -0.0198,0.15611 z m -4.61221,1.07235 c -1.67455,0 -2.31617,1.1856 -2.58816,2.78289 l -0.35136,2.00395 c -0.0582,0.29316 -0.0778,0.56542 -0.0778,0.79878 0,1.10808 0.58446,1.47876 1.34276,1.47876 0.7403,0 1.55839,-0.31248 2.43284,-0.81783 l 1.07051,-6.11055 c -0.34978,-0.078 -1.12872,-0.136 -1.8288,-0.136 z" />
      <path
         style="fill:#878785;stroke-width:0.26458332"
         inkscape:connector-curvature="0"
         id="path67"
         d="m 120.92872,172.31548 -5.25489,11.36676 c -0.97341,2.12196 -1.84971,3.05621 -4.49633,3.05621 -0.6432,0 -1.5957,-0.11642 -2.02512,-0.25242 -0.19394,-0.0585 -0.34978,-0.11668 -0.34978,-0.27357 0,-0.0193 0,-0.0386 0,-0.0585 l 0.21405,-1.24592 c 0.0389,-0.21378 0.23336,-0.34978 0.4482,-0.34978 0.0196,0 0.0196,0 0.0389,0 0.54478,0.0193 1.63486,0.11668 2.17885,0.11668 0.8374,0 1.24592,-0.23336 1.69412,-1.24566 l 0.25295,-0.58473 h -0.21405 c -0.56542,0 -1.22635,-0.11668 -1.4015,-1.61501 l -0.99272,-8.91408 c 0,-0.0196 0,-0.0389 0,-0.0585 0,-0.2331 0.13626,-0.38894 0.42783,-0.38894 h 1.88887 c 0.17462,0 0.29157,0.17515 0.31088,0.35004 l 0.58314,7.92136 c 0.0193,0.33047 0.0794,0.42731 0.19606,0.42731 h 0.0193 c 0.0386,0 0.0775,0 0.0971,0 0.0582,0 0.0582,0 0.0582,0 l 3.56209,-8.36825 c 0.0778,-0.17488 0.25294,-0.33046 0.44688,-0.33046 h 2.06375 c 0.17515,0 0.2921,0.11668 0.2921,0.27199 2.6e-4,0.0587 -0.0196,0.11695 -0.0389,0.17542 z" />
      <path
         style="fill:#878785;stroke-width:0.26458332"
         inkscape:connector-curvature="0"
         id="path69"
         d="m 134.94634,168.91029 -0.21378,1.24434 c -0.0389,0.21378 -0.25294,0.38894 -0.46831,0.38894 h -3.97034 c -1.12898,0 -1.5957,0.39026 -1.8288,1.67481 l -0.36936,2.10238 h 5.27447 c 0.19447,0 0.33046,0.13626 0.33046,0.33073 0,0.0196 0,0.0389 0,0.0582 l -0.25294,1.40123 c -0.0386,0.21537 -0.25241,0.39026 -0.46778,0.39026 h -5.27447 l -1.03161,5.95471 c -0.0389,0.21405 -0.25294,0.38894 -0.46699,0.38894 h -1.90791 c -0.19447,0 -0.31142,-0.136 -0.31142,-0.31089 0,-0.0389 0,-0.0585 0,-0.078 l 1.7915,-10.23752 c 0.5834,-3.30782 2.29711,-3.98992 5.19668,-3.98992 2.31669,0 3.05541,0.17516 3.65919,0.27199 0.23362,0.0389 0.33046,0.0974 0.33046,0.27252 2.7e-4,0.0386 -0.019,0.0788 -0.019,0.13732 z" />
      <path
         style="fill:#878785;stroke-width:0.26458332"
         inkscape:connector-curvature="0"
         id="path71"
         d="m 144.07447,176.83139 -0.15558,0.93318 c -0.0582,0.31115 -0.19447,0.48737 -0.46672,0.48737 h -6.34656 c -0.0386,0.27225 -0.0968,0.52493 -0.0968,0.79851 0,1.05013 0.54557,1.75128 1.9857,1.75128 1.42054,0 2.76357,-0.136 3.60071,-0.21511 0.0196,0 0.0585,0 0.0781,0 0.15558,0 0.29157,0.0386 0.29157,0.21511 0,0.0193 0,0.0585 0,0.0778 l -0.23309,1.28456 c -0.0585,0.31115 -0.11669,0.44714 -0.48631,0.50535 -1.30387,0.23336 -2.16085,0.33046 -3.91319,0.33046 -1.73169,0 -3.83434,-0.97207 -3.83434,-3.91054 0,-0.35136 0.0196,-0.75935 0.0971,-1.16919 l 0.21538,-1.20544 c 0.64161,-3.6412 2.5691,-4.9829 5.54619,-4.9829 2.58868,0 3.81503,1.71238 3.81503,3.98992 0,0.35004 -0.0389,0.7403 -0.0971,1.10966 z m -4.1066,-2.88026 c -1.55655,0 -2.27727,1.05014 -2.53021,2.47201 h 4.12591 c 0.0389,-0.25427 0.0781,-0.48737 0.0781,-0.74004 -2.6e-4,-1.12898 -0.60298,-1.73197 -1.67375,-1.73197 z" />
      <path
         style="fill:#878785;stroke-width:0.26458332"
         inkscape:connector-curvature="0"
         id="path73"
         d="m 152.75783,172.12101 -0.25242,1.40097 c -0.0389,0.21405 -0.23362,0.39026 -0.44741,0.39026 -0.62309,0 -1.48034,0.0386 -2.80352,0.70009 l -1.38218,7.82399 c -0.0386,0.21405 -0.25268,0.40825 -0.46647,0.40825 h -1.79149 c -0.19473,0 -0.31115,-0.15557 -0.31115,-0.33046 0,-0.0386 0,-0.0585 0,-0.0778 l 1.79149,-10.17931 c 0.0386,-0.21379 0.2331,-0.38894 0.44689,-0.38894 h 1.6928 c 0.1942,0 0.33205,0.13626 0.33205,0.33046 0,0.0196 0,0.0389 0,0.0585 l -0.0794,0.40825 c 1.1094,-0.85566 2.14127,-0.93319 2.95963,-0.93319 0.1942,0 0.31088,0.136 0.31088,0.31115 2.7e-4,0.0389 2.7e-4,0.0582 2.7e-4,0.0778 z" />
      <path
         style="fill:#878785;stroke-width:0.26458332"
         inkscape:connector-curvature="0"
         id="path75"
         d="m 160.05847,172.12101 -0.25267,1.40097 c -0.0386,0.21405 -0.23337,0.39026 -0.44847,0.39026 -0.6223,0 -1.47902,0.0386 -2.80247,0.70009 l -1.38192,7.82399 c -0.0389,0.21405 -0.25294,0.40825 -0.46672,0.40825 h -1.7915 c -0.19446,0 -0.31115,-0.15557 -0.31115,-0.33046 0,-0.0386 0,-0.0585 0,-0.0778 l 1.7915,-10.17931 c 0.0389,-0.21379 0.23336,-0.38894 0.44714,-0.38894 h 1.69281 c 0.19394,0 0.33046,0.13626 0.33046,0.33046 0,0.0196 0,0.0389 0,0.0585 l -0.0781,0.40825 c 1.10966,-0.85566 2.14154,-0.93319 2.95963,-0.93319 0.19447,0 0.31115,0.136 0.31115,0.31115 2.6e-4,0.0389 2.6e-4,0.0582 2.6e-4,0.0778 z" />
      <path
         style="fill:#878785;stroke-width:0.26458332"
         inkscape:connector-curvature="0"
         id="path77"
         d="m 170.80426,172.31548 -5.25489,11.36676 c -0.97366,2.12196 -1.8497,3.05621 -4.49659,3.05621 -0.64294,0 -1.5957,-0.11642 -2.02459,-0.25242 -0.19447,-0.0585 -0.34978,-0.11668 -0.34978,-0.27357 0,-0.0193 0,-0.0386 0,-0.0585 l 0.21378,-1.24592 c 0.0389,-0.21378 0.23336,-0.34978 0.44847,-0.34978 0.0196,0 0.0196,0 0.0389,0 0.54425,0.0193 1.63433,0.11668 2.17885,0.11668 0.83714,0 1.24566,-0.23336 1.69386,-1.24566 l 0.25294,-0.58473 h -0.21405 c -0.56515,0 -1.22634,-0.11668 -1.40123,-1.61501 l -0.99272,-8.91408 c 0,-0.0196 0,-0.0389 0,-0.0585 0,-0.2331 0.13573,-0.38894 0.42757,-0.38894 h 1.88833 c 0.17516,0 0.2921,0.17515 0.31142,0.35004 l 0.58314,7.92136 c 0.0196,0.33047 0.0791,0.42731 0.19579,0.42731 h 0.0193 c 0.0389,0 0.0778,0 0.0974,0 0.0585,0 0.0585,0 0.0585,0 l 3.56182,-8.36825 c 0.0781,-0.17488 0.25295,-0.33046 0.44715,-0.33046 h 2.06349 c 0.17515,0 0.2921,0.11668 0.2921,0.27199 2.6e-4,0.0587 -0.0196,0.11695 -0.0389,0.17542 z" />
    </g>
  </g>
</svg>
