<svg width="277" height="59" viewBox="0 0 277 59" fill="none" xmlns="http://www.w3.org/2000/svg">
<path d="M20.3877 43.1085C24.3664 42.038 28.4605 41.445 32.582 41.3422C36.3895 41.4878 41.3047 43.2547 50.125 43.3506C53.2993 43.4382 56.4754 43.2616 59.6199 42.8228L62.2983 38.4408C47.7617 39.7447 45.0176 38.6242 44.4664 38.6626C36.6305 37.668 34.123 35.1346 25.2559 37.8091C24.5038 38.0052 23.7638 38.2442 23.0396 38.5249L20.3877 43.1085Z" fill="#005093"/>
<path d="M19.7971 44.0979L58.9448 44.0898L56.2217 48.5574H17.2549L19.7971 44.0979Z" fill="#008C44"/>
<path d="M16.6676 49.5432L55.6449 49.5352L53.0665 53.9998H14.123L16.6676 49.5432Z" fill="#008C44"/>
<path d="M36.1976 5L55.6209 37.8557H50.4163L30.9434 5H36.1976Z" fill="#008C44"/>
<path d="M29.7882 5L49.1607 37.8557H44.0062L24.4756 5.02601L29.7882 5Z" fill="#008C44"/>
<path d="M42.4629 5L61.983 37.8557H56.7293L37.2559 5H42.4629Z" fill="#008C44"/>
<path d="M29.3442 15.4281L9.78437 48.3647L7.18262 43.9688L26.7389 11.0259L29.3442 15.4281Z" fill="#008C44"/>
<path d="M26.1773 10.0317L6.55217 43.0157L4 38.5735L23.5703 5.62939L26.1773 10.0317Z" fill="#008C44"/>
<path d="M32.4581 20.8137L12.9666 53.6647L10.3613 49.2723L29.8529 16.4143L32.4581 20.8137Z" fill="#008C44"/>
<path d="M61.9141 21.9949V24.6401H66.4712V42.4917H69.3324V24.6401H73.838V21.9949H61.9141Z" fill="#005093"/>
<path d="M83.9274 35.0609C85.4389 34.8377 86.8205 34.0879 87.8242 32.9462C88.828 31.8045 89.3881 30.3456 89.4041 28.8316C89.4362 27.6558 89.1462 26.4934 88.5647 25.4681C87.9833 24.4427 87.1321 23.5926 86.1019 23.0084C84.2909 21.9949 82.0532 21.9949 80.255 21.9949H75.1025V42.4917H77.9589V24.6401H80.6583C82.1432 24.6401 83.6785 24.64 84.8817 25.4902C85.3897 25.849 85.8053 26.3214 86.0948 26.8691C86.3843 27.4168 86.5396 28.0243 86.548 28.6425C86.5659 29.4021 86.3549 30.1499 85.9419 30.7901C85.5289 31.4304 84.9327 31.9342 84.2294 32.2371C83.1029 32.7364 81.6715 32.7327 80.4088 32.7293L78.6317 32.7287L86.0145 42.4917H89.5761C89.5761 42.4917 84.6926 36.0677 83.9274 35.0609Z" fill="#005093"/>
<path d="M94.1145 21.9949H91.2578V42.4917H94.1145V21.9949Z" fill="#005093"/>
<path fill-rule="evenodd" clip-rule="evenodd" d="M117.192 24.377C114.576 22.3056 111.516 22.016 109.142 21.9949H103.364V42.4917H109.27C112.052 42.4917 114.984 42.1689 117.581 39.828C118.646 38.8566 119.496 37.6776 120.078 36.3652C120.66 35.0528 120.962 33.6352 120.965 32.2015C120.951 30.7033 120.606 29.2264 119.954 27.8746C119.302 26.5227 118.359 25.3289 117.192 24.377ZM106.22 24.6401H108.334C110.857 24.6158 113.111 24.7261 115.195 26.3298C116.117 27.01 116.861 27.8976 117.368 28.9193C117.874 29.9411 118.128 31.0676 118.108 32.2057C118.116 33.3467 117.859 34.4741 117.359 35.5015C116.858 36.5289 116.126 37.429 115.22 38.1325C113.097 39.7969 110.781 39.8195 108.33 39.8432H106.22L106.22 24.6401Z" fill="#005093"/>
<path d="M134.447 24.6401V21.9949H122.739V42.4917H134.447V39.8432H125.603V33.4897H134.153V30.8408H125.603V24.6401H134.447Z" fill="#005093"/>
<path d="M139.439 39.8432V21.9949H136.584V42.4917H147.643V39.8432H139.439Z" fill="#005093"/>
<path d="M177.593 21.9622V24.6116H182.154V42.459H185.01V24.6116H189.513V21.9622H177.593Z" fill="#005093"/>
<path d="M237.749 21.9077V37.2068C236.372 35.1854 227.32 21.9077 227.32 21.9077H223.971V42.4088H226.828V26.1185C228.218 28.1537 237.954 42.4088 237.954 42.4088H240.605V21.9077H237.749Z" fill="#005093"/>
<path d="M253.563 32.0956C252.551 31.2656 251.344 30.7033 250.053 30.4612L249.586 30.3339C247.35 29.7138 245.993 29.1998 245.993 27.2965C245.986 26.5101 246.294 25.7533 246.85 25.192C247.406 24.6307 248.164 24.3107 248.957 24.3022C249.368 24.2896 249.777 24.3582 250.16 24.5039C250.544 24.6497 250.894 24.8697 251.191 25.1512C251.488 25.4326 251.725 25.7698 251.889 26.143C252.053 26.5163 252.14 26.9182 252.146 27.3252L252.173 27.73H255.08L255.084 27.3001C255.093 26.5547 254.953 25.8148 254.67 25.1238C254.388 24.4328 253.969 23.8046 253.439 23.2759C252.885 22.7241 252.225 22.2874 251.498 21.9913C250.772 21.6952 249.993 21.5457 249.207 21.5514C245.747 21.5514 243.137 24.0092 243.137 27.2682C243.125 28.0259 243.281 28.777 243.595 29.4681C243.908 30.1592 244.372 30.7733 244.952 31.2667C246.013 32.0592 247.246 32.594 248.553 32.8281C249.617 33.0166 250.625 33.4378 251.503 34.0609C251.871 34.3588 252.17 34.7325 252.378 35.1561C252.586 35.5798 252.698 36.0432 252.707 36.5141C252.71 36.9953 252.608 37.4714 252.407 37.9094C252.206 38.3474 251.911 38.7366 251.542 39.0501C251.147 39.3726 250.684 39.6045 250.187 39.7293C249.69 39.8541 249.172 39.8687 248.668 39.772C246.62 39.4339 245.557 38.3072 245.512 36.4241L245.502 36.001H242.524L242.52 36.4311C242.507 37.239 242.656 38.0414 242.959 38.7916C243.262 39.5417 243.712 40.2244 244.285 40.7999C244.918 41.4193 245.669 41.9075 246.494 42.2361C247.32 42.5646 248.203 42.7269 249.093 42.7135C250.776 42.7429 252.402 42.1099 253.615 40.9532C254.828 39.7966 255.529 38.2106 255.563 36.5429C255.567 35.7035 255.39 34.873 255.045 34.1063C254.7 33.3396 254.195 32.6543 253.563 32.0956Z" fill="#005093"/>
<path d="M259.775 21.9077H256.919V42.4088H259.775V21.9077Z" fill="#005093"/>
<path d="M261.077 21.9077V24.5529H265.635V42.4088H268.497V24.5529H273.001V21.9077H261.077Z" fill="#005093"/>
<path d="M218.153 21.8457V22.124L203.366 39.9762C201.905 38.0525 200.055 35.6184 199.609 35.0311C201.121 34.8061 202.502 34.0549 203.506 32.9121C204.51 31.7693 205.07 30.3097 205.086 28.7948C205.117 27.619 204.825 26.457 204.243 25.432C203.661 24.4069 202.81 23.5569 201.78 22.9721C199.973 21.962 197.736 21.962 195.937 21.962H190.779V42.4588H193.637V24.6114H196.336C197.823 24.6114 199.36 24.6114 200.56 25.4578C201.068 25.8163 201.484 26.2885 201.773 26.8361C202.062 27.3836 202.217 27.991 202.225 28.609C202.243 29.3691 202.031 30.1171 201.617 30.7574C201.204 31.3978 200.607 31.9016 199.903 32.2045C198.774 32.7023 197.337 32.699 196.07 32.6962L194.31 32.6956L201.693 42.4588H205.253C205.253 42.4588 205.213 42.4063 205.143 42.3132C205.903 41.3925 210.229 36.1567 210.457 35.8801C210.751 35.8806 215.645 35.8922 218.153 35.8981V42.4204H221.051V21.8457H218.153ZM218.131 33.3278H212.606C213.461 32.2883 217.025 27.9542 218.131 26.6093V33.3278Z" fill="#005093"/>
<path d="M165.649 21.8457V22.124L152.161 38.4078V24.5527H156.664V21.9075H144.74V24.5527H149.298V42.4086H149.623V42.4532H152.523C152.523 42.4532 157.702 36.1835 157.953 35.8801C158.247 35.8806 163.14 35.8922 165.649 35.8981V42.4204H168.547V21.8457H165.649ZM165.627 33.3278H160.102C160.957 32.2883 164.521 27.9542 165.627 26.6093V33.3278Z" fill="#005093"/>
</svg>
