<?xml version="1.0" encoding="UTF-8"?>
<svg id="Layer_1" data-name="Layer 1" xmlns="http://www.w3.org/2000/svg" xmlns:xlink="http://www.w3.org/1999/xlink" viewBox="0 0 440 100">
  <defs>
    <style>
      .cls-1 {
        filter: url(#drop-shadow-1);
      }

      .cls-2 {
        fill: url(#linear-gradient-2);
      }

      .cls-3 {
        fill: #231f20;
      }

      .cls-4 {
        fill: #004a98;
      }

      .cls-5 {
        fill: url(#linear-gradient);
      }

      .cls-6 {
        fill: url(#Silver);
      }

      .cls-7 {
        fill: #3cb4e5;
      }
    </style>
    <filter id="drop-shadow-1" x="302.76" y="-.12" width="101.04" height="98.88" filterUnits="userSpaceOnUse">
      <feOffset dx="1.26" dy=".84"/>
      <feGaussianBlur result="blur" stdDeviation=".84"/>
      <feFlood flood-color="#231f20" flood-opacity=".75"/>
      <feComposite in2="blur" operator="in"/>
      <feComposite in="SourceGraphic"/>
    </filter>
    <linearGradient id="linear-gradient" x1="309.73" y1="51.03" x2="396.14" y2="51.03" gradientUnits="userSpaceOnUse">
      <stop offset=".09" stop-color="#ad812d"/>
      <stop offset=".29" stop-color="#cea34f"/>
      <stop offset=".55" stop-color="#f9f8d8"/>
      <stop offset=".61" stop-color="#f7f5d3"/>
      <stop offset=".66" stop-color="#f4edc7"/>
      <stop offset=".71" stop-color="#eee1b3"/>
      <stop offset=".77" stop-color="#e6cf97"/>
      <stop offset=".82" stop-color="#dbb972"/>
      <stop offset=".84" stop-color="#d8b267"/>
      <stop offset="1" stop-color="#d2a450"/>
    </linearGradient>
    <linearGradient id="linear-gradient-2" x1="304.18" y1="48.5" x2="399.88" y2="48.5" xlink:href="#linear-gradient"/>
    <linearGradient id="Silver" x1="310.72" y1="51.09" x2="395.38" y2="51.09" gradientUnits="userSpaceOnUse">
      <stop offset="0" stop-color="#e5e2df"/>
      <stop offset="0" stop-color="#ded9d6"/>
      <stop offset=".06" stop-color="#cfcac8"/>
      <stop offset=".18" stop-color="#a8a4a6"/>
      <stop offset=".26" stop-color="#8b878d"/>
      <stop offset=".52" stop-color="#f3f4f4"/>
      <stop offset=".58" stop-color="#e4e5e5"/>
      <stop offset=".7" stop-color="#bfbec0"/>
      <stop offset=".86" stop-color="#847f84"/>
      <stop offset=".88" stop-color="#807b80"/>
      <stop offset="1" stop-color="#d1d3d4"/>
      <stop offset="1" stop-color="#a7a9ac"/>
    </linearGradient>
  </defs>
  <g>
    <g>
      <g>
        <path class="cls-4" d="M143.11,45.84h-3.73v-1.72h9.34v1.72h-3.68v11.49h-1.94v-11.49Z"/>
        <path class="cls-4" d="M149.81,47.22h1.84v1.76c0,.42-.04.76-.04.76h.04c.45-1.48,1.61-2.64,3.13-2.64.26,0,.49.04.49.04v1.92s-.26-.06-.55-.06c-1.22,0-2.33.88-2.78,2.38-.18.58-.23,1.2-.23,1.82v4.14h-1.9v-10.12Z"/>
        <path class="cls-4" d="M162.31,51.02h.43v-.18c0-1.66-.92-2.22-2.18-2.22-1.53,0-2.76.98-2.76.98l-.78-1.42s1.43-1.2,3.7-1.2c2.51,0,3.92,1.4,3.92,3.96v6.4h-1.76v-.96c0-.46.04-.8.04-.8h-.04s-.8,2-3.17,2c-1.71,0-3.37-1.06-3.37-3.08,0-3.34,4.31-3.48,5.98-3.48ZM160.12,56.02c1.61,0,2.65-1.72,2.65-3.22v-.32h-.49c-1.43,0-4.02.1-4.02,1.92,0,.82.63,1.62,1.86,1.62Z"/>
        <path class="cls-4" d="M167.35,47.22h1.84v1.34c0,.4-.04.74-.04.74h.04c.39-.88,1.57-2.32,3.72-2.32,2.33,0,3.41,1.3,3.41,3.88v6.48h-1.9v-6.04c0-1.42-.29-2.54-1.88-2.54s-2.72,1.02-3.13,2.48c-.12.4-.16.86-.16,1.36v4.74h-1.9v-10.12Z"/>
        <path class="cls-4" d="M179.26,54.72s1.12,1.18,2.84,1.18c.82,0,1.65-.44,1.65-1.26,0-1.86-5.09-1.48-5.09-4.78,0-1.84,1.61-2.88,3.59-2.88,2.17,0,3.19,1.12,3.19,1.12l-.76,1.46s-.88-.9-2.45-.9c-.82,0-1.63.36-1.63,1.24,0,1.82,5.09,1.42,5.09,4.74,0,1.68-1.41,2.94-3.59,2.94-2.43,0-3.76-1.48-3.76-1.48l.92-1.38Z"/>
        <path class="cls-4" d="M188.03,47.22h1.74v.86c0,.4-.04.74-.04.74h.04s.84-1.84,3.33-1.84c2.66,0,4.35,2.16,4.35,5.3s-1.9,5.3-4.49,5.3c-2.17,0-3.04-1.66-3.04-1.66h-.04s.04.36.04.88v3.54h-1.9v-13.12ZM192.68,55.92c1.57,0,2.86-1.32,2.86-3.62s-1.16-3.62-2.8-3.62c-1.49,0-2.86,1.06-2.86,3.64,0,1.8.98,3.6,2.8,3.6Z"/>
        <path class="cls-4" d="M204.27,46.98c2.96,0,5.35,2.22,5.35,5.28s-2.39,5.32-5.35,5.32-5.35-2.24-5.35-5.32,2.39-5.28,5.35-5.28ZM204.27,55.9c1.88,0,3.41-1.52,3.41-3.64s-1.53-3.6-3.41-3.6-3.41,1.5-3.41,3.6,1.55,3.64,3.41,3.64Z"/>
        <path class="cls-4" d="M211.47,47.22h1.84v1.76c0,.42-.04.76-.04.76h.04c.45-1.48,1.61-2.64,3.13-2.64.26,0,.49.04.49.04v1.92s-.26-.06-.55-.06c-1.22,0-2.33.88-2.78,2.38-.18.58-.23,1.2-.23,1.82v4.14h-1.9v-10.12Z"/>
        <path class="cls-4" d="M220,48.92h-1.29v-1.56h1.35v-2.92h1.84v2.92h2.39v1.56h-2.39v4.5c0,2.02,1.39,2.28,2.12,2.28.27,0,.45-.04.45-.04v1.72s-.27.04-.67.04c-1.27,0-3.8-.4-3.8-3.78v-4.72Z"/>
        <path class="cls-4" d="M232.22,51.02h.43v-.18c0-1.66-.92-2.22-2.18-2.22-1.53,0-2.76.98-2.76.98l-.78-1.42s1.43-1.2,3.7-1.2c2.51,0,3.92,1.4,3.92,3.96v6.4h-1.76v-.96c0-.46.04-.8.04-.8h-.04s-.8,2-3.17,2c-1.71,0-3.37-1.06-3.37-3.08,0-3.34,4.31-3.48,5.98-3.48ZM230.02,56.02c1.61,0,2.65-1.72,2.65-3.22v-.32h-.49c-1.43,0-4.02.1-4.02,1.92,0,.82.63,1.62,1.86,1.62Z"/>
        <path class="cls-4" d="M237.6,48.92h-1.29v-1.56h1.35v-2.92h1.84v2.92h2.39v1.56h-2.39v4.5c0,2.02,1.39,2.28,2.12,2.28.27,0,.45-.04.45-.04v1.72s-.27.04-.67.04c-1.27,0-3.8-.4-3.8-3.78v-4.72Z"/>
        <path class="cls-4" d="M244.56,43.22h1.92v1.98h-1.92v-1.98ZM244.58,47.22h1.9v10.12h-1.9v-10.12Z"/>
        <path class="cls-4" d="M254.07,46.98c2.96,0,5.35,2.22,5.35,5.28s-2.39,5.32-5.35,5.32-5.35-2.24-5.35-5.32,2.39-5.28,5.35-5.28ZM254.07,55.9c1.88,0,3.41-1.52,3.41-3.64s-1.53-3.6-3.41-3.6-3.41,1.5-3.41,3.6,1.55,3.64,3.41,3.64Z"/>
        <path class="cls-4" d="M261.39,47.22h1.84v1.34c0,.4-.04.74-.04.74h.04c.39-.88,1.57-2.32,3.72-2.32,2.33,0,3.41,1.3,3.41,3.88v6.48h-1.9v-6.04c0-1.42-.29-2.54-1.88-2.54s-2.72,1.02-3.13,2.48c-.12.4-.16.86-.16,1.36v4.74h-1.9v-10.12Z"/>
      </g>
      <g>
        <path class="cls-4" d="M162.63,73.88h-5.32l-1.4,3.85h-2.04l5.13-13.66,2,.02,5.1,13.64h-2.06l-1.42-3.85ZM159.97,66.95s-.5.97-.74,1.66l-1.4,3.71h4.28l-1.41-3.83c-.24-.68-.69-1.54-.69-1.54h-.04Z"/>
        <path class="cls-4" d="M167.9,67.6h1.94v6.04c0,1.4.28,2.52,1.9,2.52,2.06,0,3.28-1.82,3.28-3.82v-4.74h1.94v10.12h-1.88v-1.34c0-.42.04-.74.04-.74h-.04c-.42,1-1.74,2.32-3.72,2.32-2.28,0-3.46-1.2-3.46-3.88v-6.48Z"/>
        <path class="cls-4" d="M180.56,69.3h-1.32v-1.56h1.38v-2.92h1.88v2.92h2.44v1.56h-2.44v4.5c0,2.02,1.42,2.28,2.16,2.28.28,0,.46-.04.46-.04v1.72s-.28.04-.68.04c-1.3,0-3.88-.4-3.88-3.78v-4.72Z"/>
        <path class="cls-4" d="M187.55,64.83h1.94v3.96c0,.48-.04.84-.04.84h.04c.44-.98,1.72-2.26,3.74-2.26,2.38,0,3.48,1.3,3.48,3.88v6.48h-1.94v-6.04c0-1.42-.3-2.54-1.92-2.54-1.52,0-2.78,1.04-3.2,2.5-.12.4-.16.86-.16,1.34v4.74h-1.94v-12.89Z"/>
        <path class="cls-4" d="M203.92,67.37c3.02,0,5.46,2.22,5.46,5.28s-2.44,5.32-5.46,5.32-5.46-2.24-5.46-5.32,2.44-5.28,5.46-5.28ZM203.92,76.28c1.92,0,3.48-1.52,3.48-3.64s-1.56-3.6-3.48-3.6-3.48,1.5-3.48,3.6,1.58,3.64,3.48,3.64Z"/>
        <path class="cls-4" d="M211.28,67.6h1.88v1.76c0,.42-.04.76-.04.76h.04c.46-1.48,1.64-2.64,3.2-2.64.26,0,.5.04.5.04v1.92s-.26-.06-.56-.06c-1.24,0-2.38.88-2.84,2.38-.18.58-.24,1.2-.24,1.82v4.14h-1.94v-10.12Z"/>
        <path class="cls-4" d="M224.57,69.3h-1.32v-1.56h1.38v-2.92h1.88v2.92h2.44v1.56h-2.44v4.5c0,2.02,1.42,2.28,2.16,2.28.28,0,.46-.04.46-.04v1.72s-.28.04-.68.04c-1.3,0-3.88-.4-3.88-3.78v-4.72Z"/>
        <path class="cls-4" d="M231.31,79.82s.56.42,1.18.42c.78,0,1.44-.56,1.82-1.48l.5-1.16-4.24-10h2.18l2.54,6.62c.2.52.38,1.22.38,1.22h.04s.16-.68.34-1.2l2.46-6.64h2.1l-4.74,11.93c-.62,1.56-1.86,2.38-3.28,2.38-1.14,0-1.96-.62-1.96-.62l.68-1.48Z"/>
        <path class="cls-4" d="M218.88,63.61h1.92v1.98h-1.92v-1.98ZM218.9,67.6h1.9v10.12h-1.9v-10.12Z"/>
      </g>
      <g>
        <path class="cls-4" d="M127.43,23.5h2.14l3.17,9.04c.26.76.54,1.94.54,1.94h.04s.28-1.18.54-1.94l3.2-9.01h2.1l-4.86,13.15h-1.98l-4.89-13.18Z"/>
        <path class="cls-4" d="M144.91,30.36h.44v-.18c0-1.66-.94-2.22-2.22-2.22-1.56,0-2.82.98-2.82.98l-.8-1.42s1.46-1.2,3.78-1.2c2.56,0,4,1.4,4,3.96v6.4h-1.8v-.96c0-.46.04-.8.04-.8h-.04s-.82,2-3.24,2c-1.74,0-3.44-1.06-3.44-3.08,0-3.34,4.4-3.48,6.1-3.48ZM142.67,35.36c1.64,0,2.7-1.72,2.7-3.22v-.32h-.5c-1.46,0-4.1.1-4.1,1.92,0,.82.64,1.62,1.9,1.62Z"/>
        <path class="cls-4" d="M149.74,23.56h1.94v10.02c0,1.22.48,1.44,1.08,1.44.18,0,.34-.02.34-.02v1.72s-.3.04-.64.04c-1.1,0-2.72-.3-2.72-2.84v-10.36Z"/>
        <path class="cls-4" d="M155.69,23.56h1.94v10.02c0,1.22.48,1.44,1.08,1.44.18,0,.34-.02.34-.02v1.72s-.3.04-.64.04c-1.1,0-2.72-.3-2.72-2.84v-10.36Z"/>
        <path class="cls-4" d="M165.45,26.32c2.86,0,4.38,2.12,4.38,4.74,0,.26-.06.84-.06.84h-7.38c.1,2.22,1.68,3.34,3.48,3.34s3-1.18,3-1.18l.8,1.42s-1.5,1.44-3.92,1.44c-3.18,0-5.36-2.3-5.36-5.3,0-3.22,2.18-5.3,5.06-5.3ZM167.84,30.44c-.06-1.74-1.14-2.58-2.44-2.58-1.48,0-2.68.92-2.96,2.58h5.4Z"/>
        <path class="cls-4" d="M171.39,38.78s.56.42,1.18.42c.78,0,1.44-.56,1.82-1.48l.5-1.16-4.24-9.99h2.18l2.54,6.62c.2.52.38,1.22.38,1.22h.04s.16-.68.34-1.2l2.46-6.64h2.1l-4.74,11.93c-.62,1.56-1.86,2.38-3.28,2.38-1.14,0-1.96-.62-1.96-.62l.68-1.48Z"/>
      </g>
    </g>
    <g>
      <path class="cls-7" d="M142.28,74.59c-6.26-9.8-24.73-38.7-24.73-38.7-5.51-8.54-11.8-12.98-19.29-13.96-1.12-.15-1.81,1.21-1.05,2.06,3.68,4.12,4.42,7.87-.29,15.77h11.5c1.21,0,1.97,1.31,1.38,2.36l-.15.27c-2.94,5.53-9.3,8.4-14.2,8.4h-5.54l-9.71,14.99c-3.32,5.19.41,11.99,6.57,11.99h6.91c1.75,0,3.39-.88,4.35-2.35l9.11-13.72c.64-.98,2.09-.98,2.73,0l8.97,13.72c.96,1.47,2.59,2.35,4.35,2.35,4.24,0,12.32,0,17.36,0,1.64,0,2.63-1.81,1.74-3.18Z"/>
      <path class="cls-4" d="M68.73,50.79h-8.5c-1.21,0-1.97-1.31-1.38-2.36l4.01-7.07c.56-.99,1.61-1.6,2.75-1.6h10.16l6.29-9.84c2.21-3.46-.27-7.99-4.38-7.99-4.18,0-8.79,0-11.66,0-1.75,0-3.39.88-4.35,2.35l-8.97,13.72c-.64.98-2.09.98-2.73,0l-8.97-13.72c-.96-1.47-2.59-2.35-4.35-2.35-4.24,0-12.32,0-17.35,0-1.64,0-2.63,1.81-1.75,3.19,6.26,9.8,24.72,38.7,24.72,38.7,5.51,8.54,11.8,12.98,19.29,13.96,1.12.15,1.81-1.21,1.05-2.06-3.86-4.33-4.5-8.23,1.03-16.98l5.07-7.94Z"/>
    </g>
  </g>
  <g class="cls-1">
    <g>
      <ellipse class="cls-3" cx="352.94" cy="51.03" rx="41.97" ry="42.81"/>
      <path class="cls-5" d="M352.94,8.22c23.18,0,41.97,19.17,41.97,42.81s-18.79,42.81-41.97,42.81-41.97-19.17-41.97-42.81,18.79-42.81,41.97-42.81M352.94,6.98c-23.82,0-43.21,19.76-43.21,44.05s19.38,44.05,43.21,44.05,43.21-19.76,43.21-44.05-19.38-44.05-43.21-44.05h0Z"/>
    </g>
    <path class="cls-2" d="M352.03,83.36l-28.77,11.98c-.54.23-1.14-.2-1.1-.79l2.17-31.92-19.98-24.53c-.37-.45-.14-1.12.42-1.27l30.14-7.74,16.44-27.11c.31-.51,1.05-.51,1.36,0l16.44,27.11,30.14,7.74c.56.14.78.82.42,1.27l-19.98,24.53,2.17,31.92c.04.59-.55,1.01-1.1.79l-28.77-11.98Z"/>
    <path class="cls-6" d="M395.18,55.22c-1.08,11.14-6.34,20.87-14.07,27.79-3.49,3.13-7.49,5.68-11.84,7.53-6.37,2.71-13.49,3.91-20.86,3.19-4.64-.45-9.02-1.64-13.07-3.42-2.84-1.25-5.53-2.78-7.99-4.58,3.02,1.68,6.31,2.98,9.78,3.83,1.81.44,3.67.77,5.57.95,6.84.66,13.43-.47,19.32-3,7.6-3.27,14.04-8.88,18.3-16.01,2.87-4.8,4.76-10.28,5.36-16.2l9.12-11.2c.59,3.59.74,7.32.37,11.11ZM350.3,12.09c3.47.34,6.79,1.12,9.91,2.28,8.9,3.3,16.18,9.68,20.69,17.75l11.35,2.91c-5.8-14.31-19.15-24.99-35.59-26.59-.02,0-.03,0-.05,0-3.14-.3-6.24-.25-9.25.12-8.44,1.02-16.21,4.51-22.47,9.81,5.94-3.9,12.97-6.23,20.43-6.44,1.64-.05,3.3,0,4.97.17ZM338.75,22.78l4.84-7.98c-9.82,1.05-19.19,6.01-25.56,14.55-1.17,1.57-2.2,3.2-3.08,4.88l12.05-3.09c3.35-3.7,7.38-6.49,11.75-8.35ZM353.2,87.65c-3.08.11-6.18-.2-9.22-.94-4.29-1.04-8.45-2.94-12.21-5.76-3.28-2.45-5.98-5.37-8.09-8.61-3.38-5.18-5.22-11.15-5.45-17.22l-7.17-8.8c-1.63,11.92,2.65,24.29,12.17,32.64.72.63,1.46,1.25,2.24,1.83,4.96,3.7,10.54,5.95,16.26,6.85,3.82.6,7.69.6,11.47,0ZM378.38,31.47c-2.31-3.6-5.28-6.86-8.91-9.57-2.3-1.72-4.74-3.12-7.26-4.22l3.11,5.13c2.4,1.03,4.72,2.35,6.91,3.99,1.75,1.31,3.33,2.76,4.75,4.32h0s1.4.36,1.4.36h0Z"/>
    <path class="cls-5" d="M352.94,8.22c23.18,0,41.97,19.17,41.97,42.81s-18.79,42.81-41.97,42.81-41.97-19.17-41.97-42.81,18.79-42.81,41.97-42.81M352.94,6.98c-23.82,0-43.21,19.76-43.21,44.05s19.38,44.05,43.21,44.05,43.21-19.76,43.21-44.05-19.38-44.05-43.21-44.05h0Z"/>
    <g>
      <path class="cls-3" d="M322.11,37.14c2.61,0,2.93,2.13,2.93,5.13s-.33,5.13-2.93,5.13-2.93-2.13-2.93-5.13.33-5.13,2.93-5.13ZM322.11,45.93c1.03,0,1.2-1.01,1.2-3.66s-.17-3.66-1.2-3.66-1.19,1.02-1.19,3.66.17,3.66,1.19,3.66Z"/>
      <path class="cls-3" d="M327.59,37.33v6.88c0,.98.21,1.71,1.01,1.71s1.01-.73,1.01-1.71v-6.88h1.74v6.88c0,2.52-1.34,3.18-2.75,3.18s-2.75-.54-2.75-3.18v-6.88h1.74Z"/>
      <path class="cls-3" d="M337.38,37.33v1.63h-1.88v8.24h-1.74v-8.24h-1.88v-1.63h5.51Z"/>
      <path class="cls-3" d="M339.41,44.12v.29c0,.93.23,1.52,1.15,1.52.53,0,1.04-.39,1.04-1.22,0-.9-.4-1.23-1.55-1.69-1.55-.61-2.26-1.34-2.26-2.99,0-1.92,1.03-2.9,2.67-2.9,1.55,0,2.67.76,2.67,2.65v.28h-1.67c0-.93-.28-1.47-.94-1.47-.78,0-.99.57-.99,1.15s.16.98.89,1.34l1.34.66c1.3.65,1.64,1.41,1.64,2.61,0,2.09-1.11,3.03-2.99,3.03s-2.74-1.05-2.74-2.88v-.4h1.74Z"/>
      <path class="cls-3" d="M349.2,37.33v1.63h-1.88v8.24h-1.74v-8.24h-1.88v-1.63h5.51Z"/>
      <path class="cls-3" d="M350.85,37.33h2.15l2.28,9.87h-1.81l-.4-2.09h-2.29l-.4,2.09h-1.81l2.28-9.87ZM351.08,43.49h1.69l-.83-4.44h-.02l-.83,4.44Z"/>
      <path class="cls-3" d="M357.77,37.33l2.1,6.76h.02v-6.76h1.59v9.87h-1.98l-2.12-6.91h-.02v6.91h-1.59v-9.87h2Z"/>
      <path class="cls-3" d="M362.66,37.33h2.85c2.41,0,2.85,1.89,2.85,4.8,0,3.5-.65,5.07-2.96,5.07h-2.74v-9.87ZM364.4,45.74h.77c1.21,0,1.45-.87,1.45-3.55,0-2.24-.16-3.39-1.48-3.39h-.74v6.94Z"/>
      <path class="cls-3" d="M369.47,47.2v-9.87h1.74v9.87h-1.74Z"/>
      <path class="cls-3" d="M374.38,37.33l2.1,6.76h.02v-6.76h1.59v9.87h-1.98l-2.12-6.91h-.02v6.91h-1.59v-9.87h2Z"/>
      <path class="cls-3" d="M383.02,40.26c0-.73-.29-1.66-.99-1.66-.84,0-1.18,1-1.18,3.46s.19,3.87,1.19,3.87c.41,0,1.07-.51,1.07-1.58v-1.01h-1.15v-1.47h2.81v5.32h-1.28v-.91h-.02c-.41.77-1,1.11-1.81,1.11-2.14,0-2.56-1.83-2.56-5.24s.68-5.02,2.9-5.02c1.91,0,2.68,1.12,2.68,3.12h-1.67Z"/>
    </g>
    <g>
      <path class="cls-3" d="M320.9,49.58h1.58c.92,0,1.23.7,1.23,1.4,0,.97-.57,1.41-1.43,1.41h-.48v1.86h-.9v-4.67ZM321.81,51.69h.4c.36,0,.6-.22.6-.7s-.18-.72-.63-.72h-.38v1.42Z"/>
      <path class="cls-3" d="M324.95,49.58v3.26c0,.46.11.81.53.81s.53-.35.53-.81v-3.26h.9v3.26c0,1.19-.7,1.5-1.43,1.5s-1.43-.25-1.43-1.5v-3.26h.9Z"/>
      <path class="cls-3" d="M327.42,49.58h1.51c.74,0,1.27.29,1.27,1.18,0,.5-.23.89-.68,1.02h0c.5.09.82.48.82,1.1,0,.73-.35,1.37-1.4,1.37h-1.53v-4.67ZM328.33,51.49h.26c.5,0,.72-.18.72-.61s-.21-.61-.65-.61h-.33v1.22ZM328.33,53.55h.35c.43,0,.73-.16.73-.71s-.29-.7-.69-.7h-.39v1.41Z"/>
      <path class="cls-3" d="M330.85,54.25v-4.67h.9v3.9h1.6v.77h-2.51Z"/>
      <path class="cls-3" d="M333.75,54.25v-4.67h.9v4.67h-.9Z"/>
      <path class="cls-3" d="M337.18,51.15c0-.68-.13-.97-.54-.97-.46,0-.56.48-.56,1.8,0,1.41.19,1.67.58,1.67.33,0,.57-.18.57-1.18h.9c0,1.01-.24,1.88-1.43,1.88-1.36,0-1.53-1.01-1.53-2.43s.17-2.43,1.53-2.43,1.39.99,1.39,1.67h-.9Z"/>
      <path class="cls-3" d="M342.65,49.58v.77h-.98v3.9h-.9v-3.9h-.98v-.77h2.86Z"/>
      <path class="cls-3" d="M342.98,49.58h1.67c.74,0,1.19.41,1.19,1.2,0,.62-.24,1.04-.75,1.15h0c.62.1.71.45.72,1.44,0,.49.03.75.2.84v.04h-.98c-.09-.13-.11-.31-.11-.49l-.03-.9c-.01-.37-.17-.59-.53-.59h-.48v1.97h-.9v-4.67ZM343.88,51.62h.38c.43,0,.68-.2.68-.7,0-.43-.22-.65-.63-.65h-.43v1.35Z"/>
      <path class="cls-3" d="M347.28,49.58h1.12l1.19,4.67h-.94l-.21-.99h-1.19l-.21.99h-.94l1.19-4.67ZM347.4,52.49h.88l-.43-2.1h-.01l-.43,2.1Z"/>
      <path class="cls-3" d="M350.88,49.58l1.09,3.2h.01v-3.2h.83v4.67h-1.03l-1.11-3.27h-.01v3.27h-.83v-4.67h1.04Z"/>
      <path class="cls-3" d="M354.12,52.79v.14c0,.44.12.72.6.72.28,0,.54-.18.54-.58,0-.42-.21-.58-.8-.8-.8-.29-1.17-.63-1.17-1.41,0-.91.53-1.37,1.39-1.37.8,0,1.39.36,1.39,1.26v.13h-.87c0-.44-.14-.69-.49-.69-.41,0-.51.27-.51.54s.08.46.46.63l.7.31c.68.31.85.67.85,1.24,0,.99-.58,1.43-1.56,1.43s-1.43-.5-1.43-1.36v-.19h.9Z"/>
      <path class="cls-3" d="M356.59,49.58h1.58c.92,0,1.23.7,1.23,1.4,0,.97-.57,1.41-1.43,1.41h-.48v1.86h-.9v-4.67ZM357.49,51.69h.4c.36,0,.6-.22.6-.7s-.18-.72-.63-.72h-.38v1.42Z"/>
      <path class="cls-3" d="M361.22,49.49c1.36,0,1.53,1.01,1.53,2.43s-.17,2.43-1.53,2.43-1.53-1.01-1.53-2.43.17-2.43,1.53-2.43ZM361.22,53.64c.53,0,.62-.48.62-1.73s-.09-1.73-.62-1.73-.62.48-.62,1.73.09,1.73.62,1.73Z"/>
      <path class="cls-3" d="M363.22,49.58h1.67c.74,0,1.19.41,1.19,1.2,0,.62-.24,1.04-.75,1.15h0c.62.1.71.45.72,1.44,0,.49.03.75.2.84v.04h-.98c-.09-.13-.11-.31-.11-.49l-.03-.9c-.01-.37-.17-.59-.53-.59h-.48v1.97h-.9v-4.67ZM364.12,51.62h.38c.43,0,.68-.2.68-.7,0-.43-.22-.65-.63-.65h-.43v1.35Z"/>
      <path class="cls-3" d="M369.16,49.58v.77h-.98v3.9h-.9v-3.9h-.98v-.77h2.86Z"/>
      <path class="cls-3" d="M370.02,49.58h1.12l1.19,4.67h-.94l-.21-.99h-1.19l-.21.99h-.94l1.19-4.67ZM370.14,52.49h.88l-.43-2.1h-.01l-.43,2.1Z"/>
      <path class="cls-3" d="M374.86,49.58v.77h-.98v3.9h-.9v-3.9h-.98v-.77h2.86Z"/>
      <path class="cls-3" d="M375.23,54.25v-4.67h.9v4.67h-.9Z"/>
      <path class="cls-3" d="M378.18,49.49c1.36,0,1.53,1.01,1.53,2.43s-.17,2.43-1.53,2.43-1.53-1.01-1.53-2.43.17-2.43,1.53-2.43ZM378.18,53.64c.53,0,.62-.48.62-1.73s-.09-1.73-.62-1.73-.62.48-.62,1.73.09,1.73.62,1.73Z"/>
      <path class="cls-3" d="M381.22,49.58l1.09,3.2h.01v-3.2h.83v4.67h-1.03l-1.11-3.27h-.01v3.27h-.83v-4.67h1.04Z"/>
      <path class="cls-3" d="M343.04,59.33v.14c0,.44.12.72.6.72.28,0,.54-.18.54-.58,0-.42-.21-.58-.8-.8-.8-.29-1.17-.63-1.17-1.41,0-.91.53-1.37,1.39-1.37.8,0,1.39.36,1.39,1.26v.13h-.87c0-.44-.14-.69-.49-.69-.41,0-.51.27-.51.54s.08.46.46.63l.7.31c.68.31.85.67.85,1.24,0,.99-.58,1.43-1.56,1.43s-1.43-.5-1.43-1.36v-.19h.9Z"/>
      <path class="cls-3" d="M346.24,56.12l.59,1.8h.01l.63-1.8h.98l-1.16,2.83v1.84h-.9v-1.84l-1.16-2.83h1.02Z"/>
      <path class="cls-3" d="M349.34,59.33v.14c0,.44.12.72.6.72.28,0,.54-.18.54-.58,0-.42-.21-.58-.8-.8-.8-.29-1.17-.63-1.17-1.41,0-.91.53-1.37,1.39-1.37.8,0,1.39.36,1.39,1.26v.13h-.87c0-.44-.14-.69-.49-.69-.41,0-.51.27-.51.54s.08.46.46.63l.7.31c.68.31.85.67.85,1.24,0,.99-.58,1.43-1.56,1.43s-1.43-.5-1.43-1.36v-.19h.9Z"/>
      <path class="cls-3" d="M354.43,56.12v.77h-.98v3.9h-.9v-3.9h-.98v-.77h2.86Z"/>
      <path class="cls-3" d="M357.27,56.12v.77h-1.6v1.1h1.51v.77h-1.51v1.26h1.66v.77h-2.57v-4.67h2.51Z"/>
      <path class="cls-3" d="M357.74,56.12h1.34l.64,3.3h.01l.65-3.3h1.34v4.67h-.83v-3.73h-.01l-.8,3.73h-.7l-.8-3.73h-.01v3.73h-.83v-4.67Z"/>
    </g>
    <g>
      <path class="cls-4" d="M341.71,23.44c-.09-1.59.87-2.51,2.38-2.51,1.37,0,2.29.59,2.29,1.82,0,1.48-1.41,1.95-2.46,2.61h0s2.55,0,2.55,0v1.41h-4.87c-.03-.56.13-1.04.4-1.43.47-.67,1.28-1.12,2-1.57.29-.18.76-.42.76-.84,0-.52-.3-.71-.68-.71-.65,0-.86.48-.85,1.19h-1.52Z"/>
      <path class="cls-4" d="M349.4,20.93c1.03,0,2.4.72,2.4,2.96s-1.37,2.96-2.39,2.96-2.39-.72-2.39-2.96,1.37-2.96,2.38-2.96ZM349.4,25.59c.82,0,.86-1.07.86-1.69s-.04-1.69-.85-1.69-.86,1.07-.86,1.69.03,1.69.85,1.69Z"/>
      <path class="cls-4" d="M352.5,23.44c-.09-1.59.87-2.51,2.38-2.51,1.37,0,2.29.59,2.29,1.82,0,1.48-1.41,1.95-2.46,2.61h0s2.55,0,2.55,0v1.41h-4.87c-.03-.56.13-1.04.4-1.43.47-.67,1.28-1.12,2-1.57.29-.18.76-.42.76-.84,0-.52-.3-.71-.68-.71-.65,0-.86.48-.85,1.19h-1.52Z"/>
      <path class="cls-4" d="M360.24,25.65h-2.5v-1.57l2.57-3.08h1.61v3.23h.76v1.42h-.76v1.15h-1.68v-1.15ZM358.86,24.23h1.37v-1.62l-1.37,1.62Z"/>
    </g>
    <g id="q1P3Uk">
      <g>
        <path class="cls-4" d="M346.9,32.83c-.24.56-.46,1.09-.7,1.63h-2.01c.77-1.85,1.54-3.67,2.3-5.5.11,0,.2-.01.29-.01,1.32,0,2.64,0,3.96,0,.35,0,.7.04,1.02.2.5.24.72.66.62,1.22-.13.74-.54,1.3-1.11,1.73-.58.43-1.24.68-1.95.71-.76.03-1.51.03-2.27.04-.04,0-.09,0-.16,0ZM347.9,30.43c-.14.33-.26.63-.39.95.08.01.11.02.14.03.59,0,1.17.02,1.76.01.42,0,.68-.24.79-.71-.05-.23-.24-.27-.42-.27-.62-.01-1.24,0-1.89,0Z"/>
        <path class="cls-4" d="M341.53,34.48v-.98l-2.54-.02s-.52.63-.81.98h-1.97c1.55-1.85,3.07-3.67,4.61-5.5h2.71v5.51c-.66,0-1.31,0-2,0ZM341.58,31.86v-1.54c-.44.51-.84,1-1.25,1.54h1.25Z"/>
        <path class="cls-4" d="M365.06,34.46h-1.96v-.95l-2.54-.05s-.54.66-.83,1h-1.89s-.01-.03-.02-.04c0-.01,0-.03,0-.03.09-.12.18-.24.28-.35,1.42-1.69,2.83-3.38,4.26-5.08h2.69v5.5ZM363.15,30.4s-.05-.02-.07-.03c-.39.48-.79.97-1.21,1.49h1.23s.04-.98.06-1.46Z"/>
        <path class="cls-4" d="M360.38,28.97c-.01.07-.01.11-.03.15-.21.5-.42,1-.64,1.52h-2.34c-.54,1.27-1.07,2.54-1.61,3.82h-2.01c.51-1.28,1.07-2.51,1.57-3.81h-2.33c.25-.59.47-1.13.7-1.68h6.68Z"/>
      </g>
    </g>
    <g>
      <g>
        <g>
          <path class="cls-4" d="M352.06,69.69h-.71v-.33h1.79v.33h-.7v2.2h-.37v-2.2Z"/>
          <path class="cls-4" d="M353.34,69.95h.35v.34c0,.08,0,.15,0,.15h0c.09-.28.31-.51.6-.51.05,0,.09,0,.09,0v.37s-.05-.01-.11-.01c-.23,0-.45.17-.53.46-.03.11-.04.23-.04.35v.79h-.36v-1.94Z"/>
          <path class="cls-4" d="M355.74,70.68h.08v-.03c0-.32-.18-.42-.42-.42-.29,0-.53.19-.53.19l-.15-.27s.27-.23.71-.23c.48,0,.75.27.75.76v1.23h-.34v-.18c0-.09,0-.15,0-.15h0s-.15.38-.61.38c-.33,0-.65-.2-.65-.59,0-.64.83-.67,1.14-.67ZM355.32,71.64c.31,0,.51-.33.51-.62v-.06h-.09c-.27,0-.77.02-.77.37,0,.16.12.31.36.31Z"/>
          <path class="cls-4" d="M356.7,69.95h.35v.26c0,.08,0,.14,0,.14h0c.08-.17.3-.44.71-.44.45,0,.65.25.65.74v1.24h-.36v-1.16c0-.27-.06-.49-.36-.49s-.52.2-.6.47c-.02.08-.03.16-.03.26v.91h-.36v-1.94Z"/>
          <path class="cls-4" d="M358.98,71.39s.21.23.54.23c.16,0,.32-.08.32-.24,0-.36-.98-.28-.98-.92,0-.35.31-.55.69-.55.42,0,.61.21.61.21l-.15.28s-.17-.17-.47-.17c-.16,0-.31.07-.31.24,0,.35.98.27.98.91,0,.32-.27.56-.69.56-.47,0-.72-.28-.72-.28l.18-.26Z"/>
          <path class="cls-4" d="M360.66,69.95h.33v.16c0,.08,0,.14,0,.14h0s.16-.35.64-.35c.51,0,.83.41.83,1.01s-.36,1.01-.86,1.01c-.42,0-.58-.32-.58-.32h0s0,.07,0,.17v.68h-.36v-2.51ZM361.55,71.62c.3,0,.55-.25.55-.69s-.22-.69-.54-.69c-.29,0-.55.2-.55.7,0,.34.19.69.54.69Z"/>
          <path class="cls-4" d="M363.77,69.91c.57,0,1.02.42,1.02,1.01s-.46,1.02-1.02,1.02-1.02-.43-1.02-1.02.46-1.01,1.02-1.01ZM363.77,71.62c.36,0,.65-.29.65-.7s-.29-.69-.65-.69-.65.29-.65.69.3.7.65.7Z"/>
          <path class="cls-4" d="M365.15,69.95h.35v.34c0,.08,0,.15,0,.15h0c.09-.28.31-.51.6-.51.05,0,.09,0,.09,0v.37s-.05-.01-.11-.01c-.23,0-.45.17-.53.46-.03.11-.04.23-.04.35v.79h-.36v-1.94Z"/>
          <path class="cls-4" d="M366.78,70.28h-.25v-.3h.26v-.56h.35v.56h.46v.3h-.46v.86c0,.39.27.44.41.44.05,0,.09,0,.09,0v.33s-.05,0-.13,0c-.24,0-.73-.08-.73-.72v-.9Z"/>
          <path class="cls-4" d="M369.12,70.68h.08v-.03c0-.32-.18-.42-.42-.42-.29,0-.53.19-.53.19l-.15-.27s.27-.23.71-.23c.48,0,.75.27.75.76v1.23h-.34v-.18c0-.09,0-.15,0-.15h0s-.15.38-.61.38c-.33,0-.65-.2-.65-.59,0-.64.83-.67,1.14-.67ZM368.7,71.64c.31,0,.51-.33.51-.62v-.06h-.09c-.27,0-.77.02-.77.37,0,.16.12.31.36.31Z"/>
          <path class="cls-4" d="M370.15,70.28h-.25v-.3h.26v-.56h.35v.56h.46v.3h-.46v.86c0,.39.27.44.41.44.05,0,.09,0,.09,0v.33s-.05,0-.13,0c-.24,0-.73-.08-.73-.72v-.9Z"/>
          <path class="cls-4" d="M371.49,69.19h.37v.38h-.37v-.38ZM371.49,69.95h.36v1.94h-.36v-1.94Z"/>
          <path class="cls-4" d="M373.31,69.91c.57,0,1.02.42,1.02,1.01s-.46,1.02-1.02,1.02-1.02-.43-1.02-1.02.46-1.01,1.02-1.01ZM373.31,71.62c.36,0,.65-.29.65-.7s-.29-.69-.65-.69-.65.29-.65.69.3.7.65.7Z"/>
          <path class="cls-4" d="M374.71,69.95h.35v.26c0,.08,0,.14,0,.14h0c.08-.17.3-.44.71-.44.45,0,.65.25.65.74v1.24h-.36v-1.16c0-.27-.06-.49-.36-.49s-.52.2-.6.47c-.02.08-.03.16-.03.26v.91h-.36v-1.94Z"/>
        </g>
        <g>
          <path class="cls-4" d="M355.8,75.06h-1.02l-.27.74h-.39l.98-2.62h.38s.98,2.62.98,2.62h-.39l-.27-.74ZM355.29,73.73s-.1.19-.14.32l-.27.71h.82l-.27-.73c-.05-.13-.13-.29-.13-.29h0Z"/>
          <path class="cls-4" d="M356.8,73.86h.37v1.16c0,.27.05.48.36.48.39,0,.63-.35.63-.73v-.91h.37v1.94h-.36v-.26c0-.08,0-.14,0-.14h0c-.08.19-.33.44-.71.44-.44,0-.66-.23-.66-.74v-1.24Z"/>
          <path class="cls-4" d="M359.23,74.18h-.25v-.3h.26v-.56h.36v.56h.47v.3h-.47v.86c0,.39.27.44.41.44.05,0,.09,0,.09,0v.33s-.05,0-.13,0c-.25,0-.74-.08-.74-.72v-.9Z"/>
          <path class="cls-4" d="M360.57,73.33h.37v.76c0,.09,0,.16,0,.16h0c.08-.19.33-.43.72-.43.46,0,.67.25.67.74v1.24h-.37v-1.16c0-.27-.06-.49-.37-.49-.29,0-.53.2-.61.48-.02.08-.03.16-.03.26v.91h-.37v-2.47Z"/>
          <path class="cls-4" d="M363.7,73.81c.58,0,1.05.42,1.05,1.01s-.47,1.02-1.05,1.02-1.05-.43-1.05-1.02.47-1.01,1.05-1.01ZM363.7,75.52c.37,0,.67-.29.67-.7s-.3-.69-.67-.69-.67.29-.67.69.3.7.67.7Z"/>
          <path class="cls-4" d="M365.11,73.86h.36v.34c0,.08,0,.15,0,.15h0c.09-.28.31-.51.61-.51.05,0,.1,0,.1,0v.37s-.05-.01-.11-.01c-.24,0-.46.17-.54.46-.03.11-.05.23-.05.35v.79h-.37v-1.94Z"/>
          <path class="cls-4" d="M367.66,74.18h-.25v-.3h.26v-.56h.36v.56h.47v.3h-.47v.86c0,.39.27.44.41.44.05,0,.09,0,.09,0v.33s-.05,0-.13,0c-.25,0-.74-.08-.74-.72v-.9Z"/>
          <path class="cls-4" d="M368.95,76.2s.11.08.23.08c.15,0,.28-.11.35-.28l.1-.22-.81-1.91h.42l.49,1.27c.04.1.07.23.07.23h0s.03-.13.07-.23l.47-1.27h.4l-.91,2.29c-.12.3-.36.46-.63.46-.22,0-.38-.12-.38-.12l.13-.28Z"/>
          <path class="cls-4" d="M366.57,73.09h.37v.38h-.37v-.38ZM366.57,73.86h.36v1.94h-.36v-1.94Z"/>
        </g>
        <g>
          <path class="cls-4" d="M349.06,65.41h.41l.61,1.73c.05.15.1.37.1.37h0s.05-.23.1-.37l.61-1.73h.4l-.93,2.52h-.38l-.94-2.52Z"/>
          <path class="cls-4" d="M352.4,66.73h.08v-.03c0-.32-.18-.42-.42-.42-.3,0-.54.19-.54.19l-.15-.27s.28-.23.72-.23c.49,0,.77.27.77.76v1.22h-.34v-.18c0-.09,0-.15,0-.15h0s-.16.38-.62.38c-.33,0-.66-.2-.66-.59,0-.64.84-.67,1.17-.67ZM351.97,67.68c.31,0,.52-.33.52-.62v-.06h-.1c-.28,0-.78.02-.78.37,0,.16.12.31.36.31Z"/>
          <path class="cls-4" d="M353.33,65.42h.37v1.92c0,.23.09.28.21.28.03,0,.07,0,.07,0v.33s-.06,0-.12,0c-.21,0-.52-.06-.52-.54v-1.98Z"/>
          <path class="cls-4" d="M354.47,65.42h.37v1.92c0,.23.09.28.21.28.03,0,.07,0,.07,0v.33s-.06,0-.12,0c-.21,0-.52-.06-.52-.54v-1.98Z"/>
          <path class="cls-4" d="M356.34,65.95c.55,0,.84.41.84.91,0,.05-.01.16-.01.16h-1.41c.02.42.32.64.67.64s.57-.23.57-.23l.15.27s-.29.28-.75.28c-.61,0-1.03-.44-1.03-1.01,0-.62.42-1.01.97-1.01ZM356.79,66.74c-.01-.33-.22-.49-.47-.49-.28,0-.51.18-.57.49h1.03Z"/>
          <path class="cls-4" d="M357.47,68.34s.11.08.23.08c.15,0,.28-.11.35-.28l.1-.22-.81-1.91h.42l.49,1.27c.04.1.07.23.07.23h0s.03-.13.07-.23l.47-1.27h.4l-.91,2.29c-.12.3-.36.46-.63.46-.22,0-.38-.12-.38-.12l.13-.28Z"/>
        </g>
      </g>
      <g>
        <path class="cls-7" d="M351.9,75.19c-1.2-1.88-4.74-7.41-4.74-7.41-1.06-1.63-2.26-2.49-3.69-2.67-.22-.03-.35.23-.2.39.7.79.85,1.51-.06,3.02h2.2c.23,0,.38.25.26.45l-.03.05c-.56,1.06-1.78,1.61-2.72,1.61h-1.06l-1.86,2.87c-.63.99.08,2.3,1.26,2.3h1.32c.34,0,.65-.17.83-.45l1.74-2.63c.12-.19.4-.19.52,0l1.72,2.63c.18.28.5.45.83.45.81,0,2.36,0,3.32,0,.31,0,.5-.35.33-.61Z"/>
        <path class="cls-4" d="M337.81,70.64h-1.63c-.23,0-.38-.25-.26-.45l.77-1.35c.11-.19.31-.31.53-.31h1.95l1.2-1.89c.42-.66-.05-1.53-.84-1.53-.8,0-1.68,0-2.23,0-.34,0-.65.17-.83.45l-1.72,2.63c-.12.19-.4.19-.52,0l-1.72-2.63c-.18-.28-.5-.45-.83-.45-.81,0-2.36,0-3.32,0-.31,0-.5.35-.33.61,1.2,1.88,4.73,7.41,4.73,7.41,1.06,1.63,2.26,2.49,3.69,2.67.22.03.35-.23.2-.39-.74-.83-.86-1.58.2-3.25l.97-1.52Z"/>
      </g>
    </g>
  </g>
</svg>